<svg width="22" height="28" viewBox="0 0 22 28" fill="none" xmlns="http://www.w3.org/2000/svg">
<path d="M11.0001 13.6938C14.216 13.6938 16.8233 10.6284 16.8233 6.84696C16.8233 3.06544 15.9673 0 11.0001 0C6.03292 0 5.17676 3.06544 5.17676 6.84696C5.17676 10.6284 7.78401 13.6938 11.0001 13.6938Z" fill="white"/>
<path d="M0.00110851 24.1483C0.000148512 23.9177 -0.000811487 24.0833 0.00110851 24.1483V24.1483Z" fill="white"/>
<path d="M21.9985 24.3283C22.0016 24.2652 21.9996 23.8904 21.9985 24.3283V24.3283Z" fill="white"/>
<path d="M21.9859 23.8718C21.878 17.2844 20.9893 15.4074 14.1885 14.2192C14.1885 14.2192 13.2311 15.4001 10.9998 15.4001C8.7685 15.4001 7.81101 14.2192 7.81101 14.2192C1.08441 15.3944 0.141632 17.2436 0.0176701 23.6578C0.00750521 24.1816 0.00279468 24.2091 0.000976562 24.1483C0.00138977 24.2622 0.00188544 24.4729 0.00188544 24.8404C0.00188544 24.8404 1.621 28 10.9998 28C20.3785 28 21.9978 24.8404 21.9978 24.8404C21.9978 24.6043 21.9979 24.4401 21.9982 24.3284C21.9963 24.366 21.9927 24.2932 21.9859 23.8718Z" fill="white"/>
</svg>
