<svg width="330" height="362" viewBox="0 0 330 362" fill="none" xmlns="http://www.w3.org/2000/svg">
<path opacity="0.1" d="M296.621 65.1969C294.451 35.9008 271.752 9.2896 243.21 2.58298C217.436 -3.4779 190.476 5.53978 164.081 3.52326C153.84 2.73025 143.734 0.28324 133.459 0.0113501C122.16 -0.187078 110.968 2.21862 100.745 7.04279C90.5219 11.867 81.5414 18.9806 74.4966 27.8347C58.0493 48.8496 46.7226 74.9057 43.9305 101.449C35.3734 182.914 5.11254 203.283 1.43873 226.53C-12.6235 316.208 79.2557 358.124 152.303 361.806C218.906 365.205 307.914 322.96 319.094 308.64C335.281 287.897 330.578 235.865 323.321 210.567C317.511 190.312 308.502 170.101 306.795 148.894C305.37 131.3 307.032 120.934 300.114 103.511C295.299 91.355 297.559 77.9305 296.621 65.1969Z" fill="#61A8FA"/>
<path opacity="0.24" d="M72.9766 282.212C69.521 284.064 65.7545 285.299 62.7468 287.984C60.9444 289.603 59.4913 291.661 58.4969 294.003C57.5026 296.345 56.9927 298.91 57.0057 301.505C56.9453 303.14 57.3628 304.752 58.1942 306.094C59.6569 308.152 62.2715 308.451 64.5935 308.605C132.879 312.946 201.324 313.124 269.627 309.14C272.735 308.965 275.908 308.759 278.769 307.442C281.63 306.125 284.254 303.491 284.858 300.054C285.881 294.261 281.201 289.291 276.758 286.163C272.315 283.035 267.104 279.68 266.08 273.898C265.276 269.391 267.104 263.814 264.133 260.665C263.319 259.891 262.391 259.285 261.39 258.875C229.979 243.728 195.67 233.376 161.744 238.192C148.031 240.137 134.702 244.531 121.794 249.974C115.23 252.742 108.767 255.788 102.349 258.957C97.4402 261.375 91.1049 263.237 87.5213 267.796C83.0235 273.579 79.385 278.775 72.9766 282.212Z" fill="#61A8FA"/>
<path d="M287.96 148.39C287.96 158.733 283.851 168.653 276.537 175.967C269.223 183.281 259.303 187.39 248.96 187.39H103.11C93.0004 187.288 83.3255 183.265 76.1251 176.168C68.9248 169.07 64.7619 159.455 64.5142 149.348C64.2664 139.241 67.9533 129.432 74.7973 121.991C81.6413 114.55 91.1076 110.057 101.2 109.46C102.723 100.752 107.268 92.8607 114.036 87.174C120.803 81.4872 129.36 78.3697 138.2 78.37H143.2C151.916 78.3792 160.36 81.4115 167.09 86.95C170.926 77.1606 178.062 69.0188 187.263 63.9314C196.465 58.844 207.155 57.1307 217.485 59.0875C227.816 61.0442 237.138 66.5482 243.842 74.6483C250.546 82.7484 254.209 92.9357 254.2 103.45C254.225 105.552 254.047 107.652 253.67 109.72C263.12 110.87 271.824 115.437 278.14 122.56C284.456 129.683 287.949 138.87 287.96 148.39Z" fill="#61A8FA"/>
<path d="M287.96 148.39C287.96 158.733 283.851 168.653 276.537 175.967C269.223 183.281 259.303 187.39 248.96 187.39H103.11C93.0004 187.288 83.3255 183.265 76.1251 176.168C68.9248 169.07 64.7619 159.455 64.5142 149.348C64.2664 139.241 67.9533 129.432 74.7973 121.991C81.6413 114.55 91.1076 110.057 101.2 109.46C102.723 100.752 107.268 92.8607 114.036 87.174C120.803 81.4872 129.36 78.3697 138.2 78.37H143.2C151.916 78.3792 160.36 81.4115 167.09 86.95C170.926 77.1606 178.062 69.0188 187.263 63.9314C196.465 58.844 207.155 57.1307 217.485 59.0875C227.816 61.0442 237.138 66.5482 243.842 74.6483C250.546 82.7484 254.209 92.9357 254.2 103.45C254.225 105.552 254.047 107.652 253.67 109.72C263.12 110.87 271.824 115.437 278.14 122.56C284.456 129.683 287.949 138.87 287.96 148.39Z" fill="url(#paint0_linear)"/>
<path d="M287.4 137.13C287.398 142.075 286.392 146.968 284.442 151.513C282.493 156.058 279.641 160.16 276.06 163.57C268.695 170.632 258.873 174.554 248.67 174.51H103.86C82.4399 174.51 65.0699 157.82 65.0699 137.13C65.0838 132.192 66.0955 127.309 68.0442 122.772C69.9929 118.235 72.8384 114.139 76.4099 110.73C83.3115 104.104 92.4001 100.234 101.96 99.85C103.289 92.5045 106.917 85.7709 112.32 80.62C119.398 73.8163 128.843 70.0298 138.66 70.06H143.66C152.267 70.0519 160.624 72.9481 167.38 78.28C173.84 62.21 190.03 50.83 209.03 50.83C233.8 50.83 253.85 70.18 253.85 94.09C253.873 96.1021 253.699 98.1118 253.33 100.09C272.53 102.31 287.4 118.06 287.4 137.13Z" fill="white"/>
<path opacity="0.25" d="M87.42 146.13C99.97 140.72 124.87 138.48 138.54 138.49L220.66 138.6C231.85 138.6 243.3 138.67 253.85 142.41C264.4 146.15 289.22 154.41 284.33 164.49C277.44 178.64 263.22 186.02 257.66 188.56C250.08 192.03 241.43 191.95 233.1 191.8L129.19 189.93C123.837 189.963 118.49 189.602 113.19 188.85C109.067 188.07 104.993 187.048 100.99 185.79C94.707 184.12 88.5404 182.039 82.53 179.56C75.88 176.63 68.04 171.97 69.88 164.78C72.64 154.13 77.53 150.43 87.42 146.13Z" fill="url(#paint1_linear)"/>
<path opacity="0.4" d="M167.36 78.2799L177.53 88.81C177.53 88.81 183.86 50.81 223.71 53.43C223.72 53.43 186.22 40.1899 167.36 78.2799Z" fill="url(#paint2_linear)"/>
<path opacity="0.4" d="M101.96 99.85C101.96 99.85 109.2 99.05 116.09 107.43C116.09 107.43 117.58 73.54 146.35 72.98C146.35 72.98 134.56 65.45 118.14 76.05C103.43 85.55 101.96 99.85 101.96 99.85Z" fill="url(#paint3_linear)"/>
<path d="M257.36 153.97H95.4699C88.3454 153.97 82.5699 159.746 82.5699 166.87V275.13C82.5699 282.254 88.3454 288.03 95.4699 288.03H257.36C264.484 288.03 270.26 282.254 270.26 275.13V166.87C270.26 159.746 264.484 153.97 257.36 153.97Z" fill="#61A8FA"/>
<path d="M253.37 160.6H98.86C92.332 160.6 87.04 165.892 87.04 172.42V267.34C87.04 273.868 92.332 279.16 98.86 279.16H253.37C259.898 279.16 265.19 273.868 265.19 267.34V172.42C265.19 165.892 259.898 160.6 253.37 160.6Z" fill="#E1EBF8"/>
<path d="M270.63 281.52H79.96C74.6139 281.52 70.28 285.854 70.28 291.2C70.28 296.546 74.6139 300.88 79.96 300.88H270.63C275.976 300.88 280.31 296.546 280.31 291.2C280.31 285.854 275.976 281.52 270.63 281.52Z" fill="#61A8FA"/>
<path d="M274.33 282.95H76.26C72.9574 282.95 70.28 285.627 70.28 288.93C70.28 292.233 72.9574 294.91 76.26 294.91H274.33C277.633 294.91 280.31 292.233 280.31 288.93C280.31 285.627 277.633 282.95 274.33 282.95Z" fill="url(#paint4_linear)"/>
<path d="M199.69 288.6H148.86V294.47H199.69V288.6Z" fill="#61A8FA"/>
<path d="M117.2 238.8H120.78V252.58H124.5V255H117.2V238.8ZM126.087 239.22H129.367V241.48H126.087V239.22ZM126.107 243.44H129.367V255H126.107V243.44ZM136.417 238.8H139.457L140.417 248.24L141.637 238.82H144.017L145.297 248.18L146.277 238.8H149.277L147.337 255H144.217L142.837 245.22L141.537 255H138.377L136.417 238.8ZM154.784 255.2C153.517 255.2 152.53 254.867 151.824 254.2C151.117 253.52 150.764 252.567 150.764 251.34V247.1C150.764 245.873 151.117 244.927 151.824 244.26C152.53 243.58 153.517 243.24 154.784 243.24C156.064 243.24 157.024 243.567 157.664 244.22C158.304 244.873 158.624 245.833 158.624 247.1V249.42H153.984V251.64C153.984 252.467 154.25 252.88 154.784 252.88C155.344 252.88 155.624 252.507 155.624 251.76V250.54H158.624V251.66C158.624 252.82 158.284 253.7 157.604 254.3C156.937 254.9 155.997 255.2 154.784 255.2ZM155.624 247.9V246.74C155.624 246.313 155.544 246.013 155.384 245.84C155.237 245.653 155.03 245.56 154.764 245.56C154.51 245.56 154.317 245.66 154.184 245.86C154.05 246.06 153.984 246.413 153.984 246.92V247.9H155.624ZM164.158 255.2C163.131 255.2 162.278 254.973 161.598 254.52C160.931 254.053 160.391 253.313 159.978 252.3L162.198 251.32C162.411 251.853 162.658 252.267 162.938 252.56C163.231 252.853 163.551 253 163.898 253C164.405 253 164.658 252.8 164.658 252.4C164.658 252.107 164.558 251.847 164.358 251.62C164.158 251.38 163.725 250.987 163.058 250.44L162.218 249.74C161.525 249.153 161.018 248.62 160.698 248.14C160.391 247.66 160.238 247.087 160.238 246.42C160.238 245.807 160.398 245.26 160.718 244.78C161.051 244.3 161.491 243.927 162.038 243.66C162.585 243.38 163.171 243.24 163.798 243.24C164.745 243.24 165.531 243.5 166.158 244.02C166.798 244.527 167.251 245.26 167.518 246.22L165.418 247.18C165.285 246.753 165.078 246.373 164.798 246.04C164.518 245.693 164.211 245.52 163.878 245.52C163.665 245.52 163.491 245.58 163.358 245.7C163.238 245.82 163.178 245.98 163.178 246.18C163.178 246.42 163.305 246.68 163.558 246.96C163.825 247.24 164.238 247.607 164.798 248.06L165.618 248.78C166.285 249.34 166.798 249.867 167.158 250.36C167.518 250.84 167.698 251.407 167.698 252.06C167.698 252.713 167.531 253.28 167.198 253.76C166.878 254.227 166.445 254.587 165.898 254.84C165.365 255.08 164.785 255.2 164.158 255.2ZM172.855 255.12C172.001 255.12 171.341 255 170.875 254.76C170.408 254.507 170.081 254.147 169.895 253.68C169.708 253.213 169.615 252.607 169.615 251.86V245.58H168.495V243.44H169.615V239.92H172.915V243.44H174.555V245.58H172.915V251.54C172.915 251.86 173.001 252.1 173.175 252.26C173.361 252.407 173.615 252.48 173.935 252.48C174.201 252.48 174.495 252.453 174.815 252.4V254.96C174.175 255.067 173.521 255.12 172.855 255.12ZM186.682 255.24C184.922 255.24 183.669 254.78 182.922 253.86C182.189 252.927 181.822 251.587 181.822 249.84V244C181.822 242.213 182.189 240.867 182.922 239.96C183.656 239.04 184.909 238.58 186.682 238.58C188.376 238.58 189.576 238.987 190.282 239.8C190.989 240.613 191.342 241.767 191.342 243.26V244.66H187.842V243.04C187.842 242.413 187.776 241.933 187.642 241.6C187.509 241.267 187.189 241.1 186.682 241.1C186.176 241.1 185.842 241.28 185.682 241.64C185.522 241.987 185.442 242.473 185.442 243.1V250.72C185.442 251.36 185.522 251.853 185.682 252.2C185.856 252.533 186.189 252.7 186.682 252.7C187.176 252.7 187.489 252.533 187.622 252.2C187.769 251.853 187.842 251.36 187.842 250.72V249.02H191.342V250.42C191.342 251.94 190.989 253.127 190.282 253.98C189.576 254.82 188.376 255.24 186.682 255.24ZM193.472 238.8H196.712V255H193.472V238.8ZM202.82 255.2C201.553 255.2 200.56 254.88 199.84 254.24C199.133 253.6 198.78 252.66 198.78 251.42V247.02C198.78 245.78 199.133 244.84 199.84 244.2C200.56 243.56 201.553 243.24 202.82 243.24C204.087 243.24 205.08 243.567 205.8 244.22C206.52 244.86 206.88 245.793 206.88 247.02V251.42C206.88 252.647 206.52 253.587 205.8 254.24C205.08 254.88 204.087 255.2 202.82 255.2ZM202.84 253.04C203.147 253.04 203.36 252.927 203.48 252.7C203.6 252.46 203.66 252.107 203.66 251.64V246.8C203.66 246.333 203.6 245.987 203.48 245.76C203.36 245.52 203.147 245.4 202.84 245.4C202.533 245.4 202.313 245.52 202.18 245.76C202.06 246 202 246.347 202 246.8V251.64C202 252.107 202.06 252.46 202.18 252.7C202.313 252.927 202.533 253.04 202.84 253.04ZM210.928 255.2C210.235 255.2 209.701 254.953 209.328 254.46C208.955 253.953 208.768 253.3 208.768 252.5V243.44H212.028V252.12C212.028 252.413 212.081 252.633 212.188 252.78C212.295 252.927 212.468 253 212.708 253C212.921 253 213.241 252.88 213.668 252.64V243.44H216.908V255H213.668V253.94C212.761 254.78 211.848 255.2 210.928 255.2ZM221.666 255.2C220.799 255.2 220.133 254.9 219.666 254.3C219.213 253.7 218.986 252.813 218.986 251.64V246.86C218.986 245.753 219.213 244.873 219.666 244.22C220.133 243.567 220.799 243.24 221.666 243.24C222.479 243.24 223.239 243.547 223.946 244.16V238.8H227.206V255H223.946V254.1C223.186 254.833 222.426 255.2 221.666 255.2ZM223.086 253.12C223.339 253.12 223.626 253.02 223.946 252.82V245.52C223.626 245.347 223.346 245.26 223.106 245.26C222.826 245.26 222.613 245.38 222.466 245.62C222.333 245.847 222.266 246.147 222.266 246.52V251.84C222.266 252.227 222.333 252.54 222.466 252.78C222.599 253.007 222.806 253.12 223.086 253.12Z" fill="#61A8FA"/>
<g clip-path="url(#clip0)">
<path fill-rule="evenodd" clip-rule="evenodd" d="M171.988 180C184.125 180 194 189.899 194 202.036C194 214.149 184.125 224.049 171.988 224.049C159.875 224.049 150 214.149 150 202.036C150 189.899 159.875 180 171.988 180ZM171.988 183.527C182.106 183.527 190.376 191.797 190.376 201.939C190.376 212.057 182.106 220.327 171.988 220.327C161.87 220.327 153.624 212.057 153.624 201.939C153.624 191.797 161.87 183.527 171.988 183.527ZM171.939 181.824C172.085 181.8 172.207 181.776 172.353 181.751L172.474 181.508L172.669 181.532V181.824L173.301 181.751C173.253 181.824 173.228 181.994 173.131 182.019L172.596 182.116L172.499 182.359C172.426 182.359 172.304 182.384 172.28 182.311L172.255 182.019L171.915 181.994L171.939 181.824ZM174.104 183.211C173.18 182.773 172.109 182.87 170.918 183.065C170.796 183.089 170.82 182.894 170.893 182.87C172.036 182.627 173.155 182.554 174.201 182.894C174.371 182.943 174.153 183.089 174.104 183.211ZM171.015 180.73C172.109 181.046 173.034 181.143 174.128 180.851C174.201 180.924 174.201 180.973 174.104 180.997C173.155 181.265 172.28 181.362 170.942 181.046C170.772 181.022 170.893 180.681 171.015 180.73Z" fill="#61A8FA"/>
<path fill-rule="evenodd" clip-rule="evenodd" d="M154.865 196.71L158.343 196.953L159.851 194.983L159.876 196.977L162.04 197.05L159.827 198.145L159.876 200.893L158.66 198.777L156.325 199.872L157.638 197.999L154.865 196.71Z" fill="#61A8FA"/>
<path d="M162.914 197.61C162.744 197.634 162.574 197.658 162.525 197.318C162.477 196.977 162.647 196.953 162.817 196.929C167.925 196.199 172.522 196.272 175.976 196.831C180.062 197.464 182.64 198.802 182.811 200.285V200.334C182.762 201.672 181.911 202.742 180.573 203.52C180.938 204.08 181.035 204.688 180.816 205.344H180.792C180.33 206.561 179.503 207.46 178.505 208.117C178.797 208.531 178.919 209.017 178.846 209.552C178.7 210.817 178.068 211.766 177.192 212.447C177.216 212.568 177.241 212.714 177.265 212.86C177.289 213.347 177.241 213.809 177.095 214.222C176.827 215.001 176.292 215.609 175.562 216.046C174.833 216.46 173.957 216.727 173.008 216.8C171.938 216.898 170.746 216.752 169.628 216.363C169.482 216.314 169.311 216.265 169.433 215.949C169.53 215.609 169.701 215.657 169.846 215.73C170.868 216.071 171.963 216.192 172.96 216.119C173.811 216.046 174.589 215.803 175.197 215.438C175.806 215.098 176.243 214.611 176.438 214.003C176.56 213.687 176.608 213.322 176.56 212.909C176.56 212.884 176.56 212.884 176.56 212.86C175.951 213.225 175.246 213.468 174.516 213.638C173.714 213.833 172.838 213.906 172.036 213.882C171.233 213.857 170.479 213.736 169.846 213.517C168.752 213.152 168.022 212.544 168.047 211.741C168.047 211.036 168.801 210.549 169.846 210.282C170.455 210.136 171.16 210.063 171.89 210.063C172.619 210.063 173.398 210.136 174.103 210.282C175.295 210.549 176.341 211.036 176.876 211.814C177.557 211.231 178.043 210.452 178.165 209.455C178.214 209.09 178.116 208.75 177.922 208.458C176.633 209.139 175.1 209.479 173.568 209.577C172.498 209.65 171.427 209.601 170.455 209.455C169.482 209.309 168.582 209.066 167.876 208.774C166.782 208.336 166.052 207.728 166.028 207.071C165.979 206.366 166.733 205.88 167.925 205.636C168.849 205.442 170.09 205.393 171.379 205.49C172.668 205.563 174.03 205.782 175.222 206.123C176.389 206.488 177.387 206.95 178.068 207.582C178.968 206.998 179.722 206.196 180.159 205.126C180.305 204.663 180.232 204.25 179.965 203.861C179.211 204.226 178.359 204.517 177.435 204.761C176 205.126 174.443 205.32 172.887 205.369C171.354 205.442 169.822 205.344 168.509 205.126C166.174 204.712 164.471 203.812 164.349 202.474C164.349 202.45 164.374 202.328 164.374 202.304C165.104 200.553 169.19 200.042 173.106 200.528C174.322 200.674 175.538 200.918 176.633 201.234C177.727 201.574 178.7 201.964 179.43 202.474C179.697 202.645 179.916 202.815 180.111 203.009C181.303 202.328 182.081 201.428 182.129 200.334C181.959 199.166 179.6 198.072 175.879 197.488C172.473 196.977 167.974 196.904 162.914 197.61ZM177.265 204.08C178.068 203.885 178.822 203.642 179.454 203.326C179.332 203.228 179.211 203.131 179.065 203.034C178.384 202.596 177.459 202.207 176.438 201.891C175.392 201.574 174.2 201.355 173.008 201.21C169.433 200.772 165.736 201.112 165.055 202.499C165.201 203.423 166.66 204.08 168.63 204.444C169.895 204.663 171.379 204.736 172.862 204.688C174.37 204.639 175.903 204.444 177.265 204.08ZM173.519 208.896C174.881 208.798 176.268 208.506 177.435 207.923C176.851 207.46 176 207.071 175.027 206.779C173.884 206.463 172.595 206.244 171.33 206.171C170.09 206.098 168.922 206.147 168.047 206.317C167.22 206.488 166.684 206.731 166.709 207.047C166.733 207.412 167.268 207.801 168.12 208.142C168.801 208.409 169.628 208.628 170.552 208.774C171.476 208.896 172.498 208.944 173.519 208.896ZM174.37 212.957C175.076 212.812 175.733 212.568 176.316 212.203C175.879 211.595 175.003 211.182 173.957 210.963C173.3 210.817 172.595 210.744 171.89 210.744C171.209 210.744 170.552 210.817 170.017 210.963C169.263 211.133 168.728 211.425 168.728 211.766C168.728 212.228 169.238 212.617 170.065 212.86C170.625 213.055 171.33 213.152 172.06 213.176C172.814 213.201 173.616 213.152 174.37 212.957Z" fill="#61A8FA"/>
<path fill-rule="evenodd" clip-rule="evenodd" d="M171.04 189.048L172.937 185.132L174.348 189.243L173.667 206.974L175.467 192.94L176.659 195.445L172.791 218.381L168.632 195.396L169.873 192.842L171.77 206.998L171.04 189.048Z" fill="#61A8FA"/>
<path d="M180.623 203.496C180.599 203.496 180.599 203.52 180.575 203.52C180.939 204.079 181.037 204.688 180.818 205.344H180.793C180.331 206.56 179.504 207.46 178.507 208.117C178.799 208.531 178.921 209.017 178.848 209.552C178.702 210.817 178.069 211.765 177.194 212.447C177.218 212.568 177.242 212.714 177.267 212.86C177.291 213.346 177.242 213.809 177.096 214.222C176.829 215 176.294 215.608 175.564 216.046C174.834 216.46 173.959 216.727 173.01 216.8C171.94 216.898 170.748 216.752 169.629 216.363C169.483 216.314 169.313 216.265 169.435 215.949C169.532 215.608 169.702 215.657 169.848 215.73C170.87 216.071 171.964 216.192 172.962 216.119C173.813 216.046 174.591 215.803 175.199 215.438C175.807 215.098 176.245 214.611 176.44 214.003C176.561 213.687 176.61 213.322 176.561 212.909C176.561 212.884 176.561 212.884 176.561 212.86C175.953 213.225 175.248 213.468 174.518 213.638C173.716 213.833 172.84 213.906 172.037 213.882C171.235 213.857 170.481 213.736 169.848 213.517C168.754 213.152 168.024 212.544 168.048 211.741C168.048 211.036 168.802 210.549 169.848 210.282C170.14 210.209 170.456 210.16 170.797 210.112V210.817C170.529 210.841 170.262 210.89 170.018 210.963C169.264 211.133 168.729 211.425 168.729 211.765C168.729 212.228 169.24 212.617 170.067 212.86C170.627 213.055 171.332 213.152 172.062 213.176C172.816 213.201 173.618 213.152 174.372 212.957C175.078 212.811 175.734 212.568 176.318 212.203C175.978 211.717 175.321 211.352 174.542 211.109V210.403C175.54 210.671 176.391 211.133 176.877 211.814C177.559 211.23 178.045 210.452 178.167 209.455C178.215 209.09 178.118 208.749 177.923 208.458C176.634 209.139 175.102 209.479 173.57 209.576C172.499 209.649 171.429 209.601 170.456 209.455C169.483 209.309 168.583 209.066 167.878 208.774C166.784 208.336 166.054 207.728 166.029 207.071C165.981 206.366 166.735 205.879 167.927 205.636C168.827 205.466 170.018 205.393 171.283 205.466H170.067V206.123C169.313 206.147 168.608 206.196 168.048 206.317C167.221 206.487 166.686 206.731 166.711 207.047C166.735 207.412 167.27 207.801 168.121 208.141C168.802 208.409 169.629 208.628 170.554 208.774C171.478 208.895 172.499 208.944 173.521 208.895C174.883 208.798 176.269 208.506 177.437 207.922C176.95 207.533 176.269 207.193 175.491 206.925V206.22C176.537 206.56 177.461 206.998 178.069 207.582C178.969 206.998 179.723 206.196 180.161 205.125C180.307 204.663 180.234 204.25 179.966 203.861C179.212 204.225 178.361 204.517 177.437 204.761C176.002 205.125 174.445 205.32 172.889 205.369C171.356 205.442 169.824 205.344 168.51 205.125C166.832 204.809 165.47 204.274 164.813 203.496H165.835C166.467 203.909 167.465 204.225 168.632 204.444C169.897 204.663 171.381 204.736 172.864 204.688C174.372 204.639 175.905 204.444 177.267 204.079C177.923 203.934 178.531 203.715 179.091 203.496H180.623Z" fill="#61A8FA"/>
</g>
<defs>
<linearGradient id="paint0_linear" x1="175.52" y1="129.25" x2="186.69" y2="571.67" gradientUnits="userSpaceOnUse">
<stop stop-opacity="0"/>
<stop offset="0.95"/>
</linearGradient>
<linearGradient id="paint1_linear" x1="177.12" y1="123.13" x2="177.86" y2="289.92" gradientUnits="userSpaceOnUse">
<stop stop-opacity="0"/>
<stop offset="0.99"/>
</linearGradient>
<linearGradient id="paint2_linear" x1="13231.5" y1="1485.15" x2="8135.76" y2="5507.28" gradientUnits="userSpaceOnUse">
<stop stop-opacity="0"/>
<stop offset="0.95"/>
</linearGradient>
<linearGradient id="paint3_linear" x1="7492.01" y1="2189.29" x2="3565.11" y2="4667.97" gradientUnits="userSpaceOnUse">
<stop stop-opacity="0"/>
<stop offset="0.95"/>
</linearGradient>
<linearGradient id="paint4_linear" x1="32687.9" y1="3649.81" x2="32687.9" y2="3066.4" gradientUnits="userSpaceOnUse">
<stop stop-opacity="0"/>
<stop offset="0.95"/>
</linearGradient>
<clipPath id="clip0">
<rect x="150" y="180" width="44" height="44" fill="white"/>
</clipPath>
</defs>
</svg>
