<svg width="433" height="462" viewBox="0 0 433 462" fill="none" xmlns="http://www.w3.org/2000/svg">
<path opacity="0.1" d="M365.5 79.4225C362.294 42.0335 347.663 17.5477 305.5 8.98838C267.428 1.25323 231.491 11.5619 192.5 8.98831C177.371 7.97623 157.847 0.361483 142.669 0.0144855C125.979 -0.238757 109.445 2.8315 94.3438 8.98831C79.2421 15.1451 65.9761 24.2239 55.5695 35.5239C31.2734 62.3439 14.5416 95.5979 10.4171 129.474C-2.22353 233.443 5.42697 309.918 0 339.586C4.00848e-05 461.753 62.5997 457.054 170.505 461.753C268.891 466.09 400.374 412.175 416.889 393.9C440.801 367.427 433.854 301.02 423.134 268.735C414.551 242.884 419.41 208.751 416.889 181.685C414.785 159.232 399.072 154.342 388.852 132.105C381.739 116.591 366.886 95.6735 365.5 79.4225Z" fill="#61A8FA"/>
</svg>
