<svg width="240" height="204" viewBox="0 0 240 204" fill="none" xmlns="http://www.w3.org/2000/svg">
<g clip-path="url(#clip0)">
<path opacity="0.18" d="M14.9885 94.957C7.35344 104.075 -0.730775 114.484 0.0505119 126.358C0.672734 135.771 6.89028 144.239 6.79671 153.656C6.70314 163.074 0.247003 171.902 1.65051 181.259C3.21308 191.879 14.2306 198.447 24.6681 200.969C46.7031 206.293 69.6692 200.501 92.2657 198.723C109.613 197.362 127.049 198.4 144.415 199.439L193.206 202.339C199.756 202.732 206.539 203.093 212.663 200.744C218.277 198.597 222.811 194.363 226.698 189.82C235.218 179.921 241.613 167.032 239.615 154.129C236.392 133.329 212.977 119.444 211.634 98.4564C211.194 91.5885 213.108 84.0189 209.36 78.2505C207.887 75.9815 205.683 74.2926 203.396 72.8564C189.136 63.9207 171.283 63.7055 154.455 63.771L72.0786 64.0798C62.9885 64.1125 47.6856 61.1137 39.6996 65.7359C35.6575 68.0704 14.9885 90.5265 14.9885 94.957Z" fill="#6694C6"/>
<path opacity="0.1" d="M222.886 160.22C223.237 164.173 222.367 167.546 220.903 169.376C219.438 171.205 217.249 172.346 214.984 172.954C212.72 173.563 205.37 175.406 203.031 175.537C205.305 174.831 214.053 172.187 215.195 170.096C215.671 169.135 216.09 168.146 216.449 167.135C217.221 165.193 218.231 156.108 219.724 154.615C221.459 152.894 222.718 158.302 222.886 160.22Z" fill="url(#paint0_linear)"/>
<path opacity="0.1" d="M125.24 171.186C104.359 169.296 83.3895 168.571 62.4282 169.015C56.4774 169.146 49.4972 168.879 46.082 164.005C49.8949 161.034 55.0785 160.73 59.9066 160.566C107.359 158.872 151.373 157.436 198.826 155.743C196.65 154.166 198.826 150.316 198.386 147.663C203.065 146.231 212.964 148.454 216.038 151.705C213.16 149.642 207.022 148.898 204.403 149.969C201.783 151.041 199.659 153.399 201.086 155.836C201.507 156.557 202.185 157.169 202.297 157.998C202.484 159.378 201.039 160.379 199.752 160.912C188.417 165.591 174.634 161.113 163.682 166.648C163.026 166.927 162.453 167.37 162.017 167.934C160.388 170.409 164.206 172.837 167.125 173.329C177.569 175.097 188.132 176.07 198.723 176.238L162.845 177.904C163.869 179.13 163.35 181.113 162.157 182.175C160.964 183.237 159.322 183.579 157.75 183.86C144.473 186.129 125.666 185.226 114.541 176.374C117.923 174.391 121.675 172.861 125.24 171.186Z" fill="url(#paint1_linear)"/>
<path d="M39.0407 52.29L33.8945 58.1567C32.9963 59.1766 32.0232 60.3836 32.229 61.731C32.3976 62.4905 32.7733 63.1884 33.3144 63.7473C34.2873 64.9086 35.398 65.947 36.622 66.8397C38.353 62.124 39.691 57.2819 39.0407 52.29Z" fill="#6694C6"/>
<path d="M39.1071 52.2666L33.9609 58.1333C33.0627 59.1532 32.0896 60.3649 32.2954 61.7075C32.4573 62.4645 32.8248 63.1622 33.3574 63.7239C34.3322 64.8837 35.4445 65.9206 36.6697 66.8116C38.4381 62.1005 39.7574 57.2631 39.1071 52.2666Z" fill="url(#paint2_linear)"/>
<path d="M198.999 0H44.0938V155.303H198.999V0Z" fill="#6694C6"/>
<path d="M198.999 0H44.0938V155.303H198.999V0Z" fill="url(#paint3_linear)"/>
<path d="M47.567 41.8427L19.4668 180.331L20.4296 180.526L48.5298 42.0381L47.567 41.8427Z" fill="#6694C6"/>
<path d="M62.5706 42.1752L34.2227 181.014L35.1852 181.21L63.5332 42.3718L62.5706 42.1752Z" fill="#6694C6"/>
<path d="M61.0859 50.8818H46.0684V51.8643H61.0859V50.8818Z" fill="#6694C6"/>
<path d="M58.7187 62.606H43.7012V63.5884H58.7187V62.606Z" fill="#6694C6"/>
<path d="M56.3457 74.3252H41.3281V75.3076H56.3457V74.3252Z" fill="#6694C6"/>
<path d="M53.9746 86.0493H38.957V87.0318H53.9746V86.0493Z" fill="#6694C6"/>
<path d="M51.6015 97.7729H36.584V98.7554H51.6015V97.7729Z" fill="#6694C6"/>
<path d="M49.2304 109.497H34.2129V110.48H49.2304V109.497Z" fill="#6694C6"/>
<path d="M46.8632 121.221H31.8457V122.204H46.8632V121.221Z" fill="#6694C6"/>
<path d="M44.4922 132.945H29.4746V133.927H44.4922V132.945Z" fill="#6694C6"/>
<path d="M42.1191 144.669H27.1016V145.651H42.1191V144.669Z" fill="#6694C6"/>
<path d="M39.748 156.393H24.7305V157.376H39.748V156.393Z" fill="#6694C6"/>
<path d="M37.375 168.112H22.3574V169.095H37.375V168.112Z" fill="#6694C6"/>
<path opacity="0.1" d="M64.9449 155.172L63.7192 43.7613L62.6946 43.5648L62.7882 52.0467H60.0514C60.0093 50.587 59.8081 49.1742 59.2935 48.2198C57.8478 45.5297 56.0186 48.2198 55.4946 50.021C55.2607 50.8069 54.8958 51.635 54.1894 52.0327H51.4291C51.1058 51.9672 50.7765 51.9359 50.4467 51.9391C50.2432 51.9497 50.0411 51.9794 49.8432 52.028H48.4397L48.3321 43.3964L47.3075 43.2046L47.4385 53.8993C47.3683 54.0116 47.2981 54.1286 47.2373 54.2502C46.6104 55.4806 46.4513 56.8841 46.3016 58.2596C44.9917 72.028 45.6841 85.8946 46.3812 99.7052C46.5028 102.096 46.6291 104.529 47.4478 106.779C47.6234 107.265 47.841 107.734 48.0981 108.182L48.6876 155.209L64.9449 155.172ZM63.9204 154.943L49.7309 154.91L49.6046 144.435L63.8034 144.468L63.9204 154.943ZM63.794 143.509L49.5812 143.476L49.4502 133.001L63.6677 133.039L63.794 143.509ZM63.6677 132.079L49.4502 132.028L49.3192 121.553L63.5508 121.591L63.6677 132.079ZM63.5414 120.646L49.3052 120.608L49.1742 110.133H50.1098C50.2403 110.203 50.3746 110.266 50.5122 110.32C50.9162 110.459 51.344 110.515 51.77 110.484C52.1961 110.454 52.6116 110.337 52.9917 110.143H63.4338L63.5414 120.646ZM63.4151 109.212H54.0209C54.1533 108.988 54.2392 108.74 54.2736 108.482C54.4046 107.504 53.8619 106.587 53.4923 105.675C52.6081 103.485 52.697 101.071 53.2209 98.7368L63.3028 98.7601L63.4151 109.212ZM63.2888 97.7777H53.4642C53.6326 97.1648 53.8291 96.5613 54.0397 95.9718C55.0876 93.0806 56.5098 90.3017 57.2022 87.3169H63.1765L63.2888 97.7777ZM63.1484 86.3438H57.3894C57.9788 82.9052 57.5157 79.3262 57.7356 75.8689H63.0361L63.1484 86.3438ZM63.0221 74.9099H57.8198C57.9044 74.0739 58.0498 73.2452 58.2549 72.4303C58.5636 71.2514 59.0221 70.0911 59.2139 68.8982C59.3683 67.4141 59.34 65.9168 59.1297 64.4397H62.9098L63.0221 74.9099ZM62.7835 53.0058L62.9005 63.4806H59.0549C59.0167 62.9763 59.0042 62.4704 59.0174 61.9648C59.0829 60.159 59.5835 58.3952 59.794 56.5987C59.9407 55.4079 60.0251 54.2101 60.0467 53.0104L62.7835 53.0058Z" fill="url(#paint4_linear)"/>
<g opacity="0.74">
<path opacity="0.74" d="M91.5139 6.45605H61.2168V9.61863H91.5139V6.45605Z" fill="#6694C6"/>
<path opacity="0.74" d="M79.7104 12.5801H61.2168V15.5555H79.7104V12.5801Z" fill="#6694C6"/>
<path opacity="0.54" d="M145.362 12.5801H87.168V15.5742H145.362V12.5801Z" fill="#6694C6"/>
<path opacity="0.74" d="M183.565 12.5801H150.807V15.5742H183.565V12.5801Z" fill="#6694C6"/>
<path opacity="0.74" d="M112.263 18.7041H86.8359V21.8433H112.263V18.7041Z" fill="#6694C6"/>
<path opacity="0.48" d="M103.341 42.2407H86.8359V45.7729H103.341V42.2407Z" fill="#6694C6"/>
<path opacity="0.74" d="M123.383 53.0386H116.412V56.5567H123.383V53.0386Z" fill="#6694C6"/>
<path opacity="0.74" d="M87.3412 47.5088H70.8359V51.041H87.3412V47.5088Z" fill="#6694C6"/>
<path opacity="0.74" d="M87.3412 111.261H70.8359V114.793H87.3412V111.261Z" fill="#6694C6"/>
<path opacity="0.74" d="M96.7357 82.0864H80.2305V85.6186H96.7357V82.0864Z" fill="#6694C6"/>
<path opacity="0.48" d="M96.7357 87.8828H80.2305V91.415H96.7357V87.8828Z" fill="#6694C6"/>
<path opacity="0.74" d="M96.7357 98.9473H80.2305V102.479H96.7357V98.9473Z" fill="#6694C6"/>
<path opacity="0.74" d="M96.7357 104.744H80.2305V108.276H96.7357V104.744Z" fill="#6694C6"/>
<path opacity="0.74" d="M117.287 87.8828H100.781V91.415H117.287V87.8828Z" fill="#6694C6"/>
<path opacity="0.48" d="M117.287 104.566H100.781V108.098H117.287V104.566Z" fill="#6694C6"/>
<path opacity="0.74" d="M146.284 111.261H92.7031V114.793H146.284V111.261Z" fill="#6694C6"/>
<path opacity="0.74" d="M129.297 24.8281H99V27.9907H129.297V24.8281Z" fill="#6694C6"/>
<path opacity="0.52" d="M156.67 24.8281H131.275V28.3416H156.67V24.8281Z" fill="#6694C6"/>
<path opacity="0.74" d="M122.354 30.9565H98.957V33.932H122.354V30.9565Z" fill="#6694C6"/>
<path opacity="0.48" d="M113.165 53.436H78.957V56.2103H113.165V53.436Z" fill="#6694C6"/>
<path opacity="0.74" d="M177.88 30.9565H129.6V34.2548H177.88V30.9565Z" fill="#6694C6"/>
<path opacity="0.48" d="M139.62 37.0806H86.8672V40.0326H139.62V37.0806Z" fill="#6694C6"/>
<path opacity="0.74" d="M113.662 117.432H78.8691V120.515H113.662V117.432Z" fill="#6694C6"/>
<path opacity="0.74" d="M118.518 60.1309H88.2207V63.2934H118.518V60.1309Z" fill="#6694C6"/>
<path opacity="0.48" d="M118.518 76.1123H88.2207V79.2749H118.518V76.1123Z" fill="#6694C6"/>
<path opacity="0.74" d="M106.621 139.869H88.2207V142.929H106.621V139.869Z" fill="#6694C6"/>
<path opacity="0.74" d="M92.3889 145.796H79.9258V148.622H92.3889V145.796Z" fill="#6694C6"/>
<path opacity="0.74" d="M106.901 122.479H88.2207V125.642H106.901V122.479Z" fill="#6694C6"/>
<path opacity="0.74" d="M129.427 122.479H110.746V125.642H129.427V122.479Z" fill="#6694C6"/>
<path opacity="0.74" d="M115.468 128.276H96.7871V131.438H115.468V128.276Z" fill="#6694C6"/>
<path opacity="0.74" d="M137.989 128.276H119.309V131.438H137.989V128.276Z" fill="#6694C6"/>
<path opacity="0.74" d="M122.415 134.204H96.7871V137.366H122.415V134.204Z" fill="#6694C6"/>
<path opacity="0.74" d="M133.268 134.204H126.424V137.366H133.268V134.204Z" fill="#6694C6"/>
<path opacity="0.74" d="M103.374 93.5015H88.2207V96.5237H103.374V93.5015Z" fill="#6694C6"/>
<path opacity="0.74" d="M118.522 70.4937H97.4316V73.31H118.522V70.4937Z" fill="#6694C6"/>
<path opacity="0.74" d="M145.217 70.4937H124.127V73.31H145.217V70.4937Z" fill="#6694C6"/>
<path opacity="0.74" d="M145.217 87.5322H124.127V90.3486H145.217V87.5322Z" fill="#6694C6"/>
<path opacity="0.74" d="M170.508 70.4937H149.418V73.31H170.508V70.4937Z" fill="#6694C6"/>
<path opacity="0.74" d="M170.509 134.334H135.758V137.151H170.509V134.334Z" fill="#6694C6"/>
<path opacity="0.48" d="M154.35 60.1309H124.053V63.2934H154.35V60.1309Z" fill="#6694C6"/>
<path opacity="0.74" d="M128.356 64.875H98.0586V68.0376H128.356V64.875Z" fill="#6694C6"/>
<path opacity="0.48" d="M164.184 64.875H133.887V68.0376H164.184V64.875Z" fill="#6694C6"/>
<path opacity="0.74" d="M188.463 60.1309H158.166V63.2934H188.463V60.1309Z" fill="#6694C6"/>
</g>
<path d="M56.6314 40.7998C56.5413 40.5253 56.5017 40.2369 56.5144 39.9483C56.5332 39.8243 56.5332 39.6981 56.5144 39.574C56.4454 39.3993 56.342 39.2402 56.2103 39.1062C56.0622 38.9078 55.9651 38.676 55.9276 38.4313C55.8901 38.1866 55.9133 37.9364 55.9951 37.7027C56.3179 37.6372 56.4302 37.3846 56.5425 37.0805C56.6215 36.7646 56.7527 36.4642 56.9308 36.1916C56.9502 36.1622 56.9757 36.1374 57.0055 36.1188C57.0354 36.1002 57.069 36.0883 57.1039 36.084C57.142 36.0878 57.1784 36.1014 57.2096 36.1236C57.2407 36.1457 57.2656 36.1756 57.2817 36.2103C57.4174 36.4816 57.2396 36.8512 57.422 37.0898C57.5296 37.2208 57.7168 37.2629 57.8478 37.3659C58.1285 37.5764 58.1425 38.0068 58.3905 38.2454C58.4491 38.2908 58.5024 38.3426 58.5495 38.3998C58.6012 38.4939 58.6209 38.6023 58.6057 38.7085C58.5774 39.125 58.4332 39.5253 58.1893 39.8641C57.9523 40.1015 57.7814 40.3966 57.6934 40.7202C57.6951 40.8213 57.6825 40.9221 57.6559 41.0197C57.6131 41.102 57.5432 41.167 57.4579 41.2037C57.3726 41.2403 57.2773 41.2464 57.1881 41.2208C57.015 41.1787 56.7764 40.8887 56.6314 40.7998Z" fill="url(#paint5_linear)"/>
<path d="M47.5041 52.1028C47.3736 51.9232 47.2157 51.7654 47.0362 51.6349C46.7431 51.4471 46.396 51.3615 46.0491 51.3917C45.7057 51.425 45.365 51.4812 45.0292 51.5601C43.5602 51.8314 42.0538 51.4899 40.5614 51.5601C38.8865 51.6583 38.2596 53.4314 37.9649 54.1425C37.3885 55.5134 37.0195 56.9624 36.8701 58.442C36.8 59.1437 36.7813 59.8455 36.7625 60.5566C36.6783 63.4244 36.4865 66.2642 36.5988 69.132L36.7859 73.8384C36.7651 74.1211 36.8391 74.4027 36.9965 74.6384C37.169 74.8098 37.389 74.9255 37.628 74.9706C40.2713 75.7332 43.0596 75.7519 45.8105 75.7519C47.214 75.7519 48.814 75.6677 49.7403 74.6104C50.7602 73.4408 50.4935 71.677 50.2783 70.1425C49.4877 64.2572 51.0877 56.8373 47.5041 52.1028Z" fill="#6694C6"/>
<path d="M47.5041 52.1028C47.3736 51.9232 47.2157 51.7654 47.0362 51.6349C46.7431 51.4471 46.396 51.3615 46.0491 51.3917C45.7057 51.425 45.365 51.4812 45.0292 51.5601C43.5602 51.8314 42.0538 51.4899 40.5614 51.5601C38.8865 51.6583 38.2596 53.4314 37.9649 54.1425C37.3885 55.5134 37.0195 56.9624 36.8701 58.442C36.8 59.1437 36.7813 59.8455 36.7625 60.5566C36.6783 63.4244 36.4865 66.2642 36.5988 69.132L36.7859 73.8384C36.7651 74.1211 36.8391 74.4027 36.9965 74.6384C37.169 74.8098 37.389 74.9255 37.628 74.9706C40.2713 75.7332 43.0596 75.7519 45.8105 75.7519C47.214 75.7519 48.814 75.6677 49.7403 74.6104C50.7602 73.4408 50.4935 71.677 50.2783 70.1425C49.4877 64.2572 51.0877 56.8373 47.5041 52.1028Z" fill="url(#paint6_linear)"/>
<path d="M45.6607 49.9508C46.0052 49.7056 46.2898 49.3857 46.4934 49.0151C46.6276 48.6586 46.6741 48.2751 46.6291 47.8969C46.6025 47.297 46.4427 46.7105 46.1612 46.18C46.0189 45.9157 45.8231 45.6839 45.5863 45.4995C45.3495 45.315 45.0769 45.1819 44.7858 45.1086C43.8501 44.9168 42.8864 45.5765 42.4466 46.4092C42.0452 47.2888 41.8545 48.25 41.8899 49.2162C41.8572 50.4279 40.9262 52.2806 42.063 52.7063C43.3776 53.1975 44.4022 51.7706 44.6221 51.1437C44.8428 50.6522 45.2042 50.2371 45.6607 49.9508Z" fill="url(#paint7_linear)"/>
<path d="M46.0817 43.7476C46.0765 44.1626 45.9549 44.5678 45.7308 44.9172C45.5355 45.2996 45.3003 45.6603 45.029 45.9932C44.8405 46.1793 44.6826 46.394 44.5612 46.6295C44.46 47.0367 44.4962 47.466 44.6641 47.8505C44.4629 47.9534 44.2711 47.495 44.084 47.6213C44.0495 47.6524 44.0251 47.6931 44.0138 47.7382C43.9684 47.883 43.9631 48.0373 43.9985 48.1848C44.0339 48.3323 44.1088 48.4674 44.215 48.5757C44.2773 48.6252 44.3283 48.6874 44.3647 48.7581C44.4208 48.9031 44.2992 49.0529 44.2431 49.1979C44.1027 49.5534 44.3507 49.9885 44.1635 50.3207C44.0679 50.4428 43.9435 50.5392 43.8014 50.6012C43.6593 50.6633 43.504 50.6891 43.3495 50.6762C42.8021 50.7137 42.2548 50.7277 41.7074 50.7137C41.5959 50.721 41.4844 50.6984 41.3846 50.6482C41.3138 50.591 41.2553 50.52 41.2127 50.4396C41.1701 50.3592 41.1442 50.271 41.1366 50.1803C40.8175 48.8331 40.6604 47.4526 40.6688 46.0681C40.635 45.6594 40.7299 45.2505 40.9401 44.8985C41.1039 44.6786 41.3425 44.5336 41.5156 44.3324C41.6887 44.1312 41.8571 43.7476 42.0863 43.495C42.4295 43.1817 42.8517 42.9682 43.3074 42.8774C44.2103 42.6388 45.9787 42.2973 46.0817 43.7476Z" fill="#3F3D56"/>
<path d="M36.7025 86.3813C36.7873 87.0891 36.8045 87.8035 36.7539 88.5146C36.6728 89.0841 36.5445 89.6459 36.3703 90.1942C35.7842 92.4168 35.04 94.5946 34.1434 96.7111C33.4978 98.1146 32.7072 99.5181 32.1925 100.978C31.6591 102.708 31.3156 104.492 31.168 106.297C31.6209 106.178 32.024 105.917 32.3188 105.553C36.4683 101.361 39.959 96.5641 42.6721 91.3263C43.2883 90.22 43.76 89.0392 44.0756 87.8129C44.2721 86.7717 44.3708 85.7145 44.3703 84.655C44.4905 82.3707 44.4561 80.0808 44.2674 77.8012C44.1832 77.0058 43.996 76.1123 43.3317 75.6912C42.994 75.5109 42.6196 75.41 42.237 75.3965C40.9598 75.2795 39.6545 75.3965 38.396 75.1158C37.9282 75.0222 37.2031 74.5731 36.8569 74.8725C36.5107 75.1719 36.7025 76.6409 36.6838 77.0433C36.4976 80.1534 36.5039 83.272 36.7025 86.3813Z" fill="#3F3D56"/>
<path d="M36.7025 86.3813C36.7873 87.0891 36.8045 87.8035 36.7539 88.5146C36.6728 89.0841 36.5445 89.6459 36.3703 90.1942C35.7842 92.4168 35.04 94.5946 34.1434 96.7111C33.4978 98.1146 32.7072 99.5181 32.1925 100.978C31.6591 102.708 31.3156 104.492 31.168 106.297C31.6209 106.178 32.024 105.917 32.3188 105.553C36.4683 101.361 39.959 96.5641 42.6721 91.3263C43.2883 90.22 43.76 89.0392 44.0756 87.8129C44.2721 86.7717 44.3708 85.7145 44.3703 84.655C44.4905 82.3707 44.4561 80.0808 44.2674 77.8012C44.1832 77.0058 43.996 76.1123 43.3317 75.6912C42.994 75.5109 42.6196 75.41 42.237 75.3965C40.9598 75.2795 39.6545 75.3965 38.396 75.1158C37.9282 75.0222 37.2031 74.5731 36.8569 74.8725C36.5107 75.1719 36.7025 76.6409 36.6838 77.0433C36.4976 80.1534 36.5039 83.272 36.7025 86.3813Z" fill="url(#paint8_linear)"/>
<path d="M46.413 92.987C46.5236 94.7797 46.4231 96.5792 46.1136 98.3484L44.9019 107.434C44.9656 107.545 45.0516 107.643 45.1546 107.72C45.2576 107.796 45.3753 107.851 45.5004 107.881C45.6255 107.91 45.7553 107.913 45.8817 107.89C46.0081 107.868 46.1285 107.819 46.2352 107.747C46.6552 107.442 46.9797 107.023 47.1709 106.54C49.0095 102.929 50.8715 99.2467 51.5545 95.256C51.8422 93.3804 51.9597 91.4826 51.9054 89.5858C51.8468 84.8207 51.3013 80.074 50.2774 75.4198C50.2553 75.197 50.154 74.9895 49.992 74.835C49.7822 74.7246 49.5393 74.6947 49.3089 74.7508L45.1405 75.2747C44.144 75.401 39.2832 75.2513 39.2832 75.2513C39.2832 75.2513 40.9721 79.4057 41.454 80.6923C42.9183 84.6034 46.413 88.6642 46.413 92.987Z" fill="#3F3D56"/>
<path d="M30.2217 107.003C30.2984 107.183 30.4152 107.343 30.5632 107.471C31.494 108.384 32.6892 108.98 33.9784 109.174C34.1477 109.223 34.3269 109.228 34.4983 109.187C34.6697 109.146 34.8276 109.061 34.9562 108.94C35.047 108.795 35.0849 108.622 35.0636 108.452C35.0423 108.281 34.9631 108.123 34.8392 108.005C34.5978 107.772 34.3133 107.59 34.0018 107.467C33.6959 107.347 33.4174 107.166 33.1827 106.937C32.948 106.707 32.7619 106.432 32.6357 106.129C31.9667 103.902 29.6463 105.174 30.2217 107.003Z" fill="url(#paint9_linear)"/>
<path d="M44.459 109.427C44.6933 109.804 45.0475 110.093 45.4648 110.245C46.4753 110.713 47.6122 111.116 48.7069 110.863C49.0267 110.809 49.3169 110.643 49.5256 110.395C49.6259 110.27 49.6782 110.113 49.673 109.953C49.6679 109.792 49.6057 109.639 49.4976 109.52C49.2449 109.291 48.8473 109.361 48.5057 109.324C48.3082 109.3 48.1179 109.234 47.9478 109.131C47.7776 109.027 47.6313 108.889 47.5186 108.725C47.3923 108.538 47.3128 108.323 47.1958 108.131C46.19 106.437 43.5935 107.644 44.459 109.427Z" fill="url(#paint10_linear)"/>
<path d="M30.1427 105.497C30.2343 105.394 30.3507 105.316 30.4808 105.27C30.6109 105.224 30.7505 105.212 30.8866 105.235C31.2795 105.329 31.4854 105.792 31.8597 105.951C32.0281 106.021 32.2152 106.026 32.3883 106.086C32.7113 106.242 32.9982 106.464 33.2304 106.737C33.8947 107.345 34.8538 107.672 35.2936 108.444C35.3482 108.521 35.3825 108.61 35.3932 108.703C35.4038 108.796 35.3905 108.891 35.3544 108.978C35.3114 109.036 35.2568 109.085 35.194 109.121C35.1312 109.157 35.0616 109.18 34.9895 109.188C34.4889 109.286 33.8292 109.464 33.3567 109.268C32.5401 108.947 31.7488 108.566 30.9895 108.126C30.5731 107.874 30.2737 107.191 29.9743 106.783C29.6094 106.297 29.7263 105.927 30.1427 105.497Z" fill="#3F3D56"/>
<path d="M44.5231 107.991C44.3968 107.939 44.2424 107.874 44.1441 107.967C44.1218 107.988 44.1043 108.014 44.0927 108.042C43.9779 108.334 43.9572 108.655 44.0335 108.959C44.1098 109.264 44.2794 109.537 44.5184 109.74C45.0014 110.144 45.5506 110.46 46.1418 110.676C46.7308 110.983 47.3611 111.204 48.0131 111.331C48.3375 111.392 48.6722 111.363 48.9813 111.247C49.2904 111.132 49.5622 110.934 49.7675 110.676C49.9052 110.482 49.9637 110.243 49.9313 110.007C49.833 109.492 49.2482 109.268 48.7617 109.071C48.1441 108.828 47.6061 108.384 46.9699 108.187C46.1558 107.92 45.2857 108.304 44.5231 107.991Z" fill="#3F3D56"/>
<path d="M47.4659 51.8033L51.1431 49.9741C51.6063 49.7657 52.0442 49.5052 52.4484 49.1975C54.6332 47.4197 54.5115 44.1355 55.6437 41.5577C55.6999 41.3846 55.8139 41.2359 55.9665 41.1367C56.1007 41.0921 56.2439 41.0825 56.3829 41.1086L57.8659 41.2864L56.6823 49.9928C56.6179 50.6304 56.4798 51.2584 56.2706 51.8641C56.0878 52.2914 55.862 52.6989 55.5969 53.0805C54.1755 55.2132 52.3683 57.0616 50.2682 58.5308C50.0488 58.7084 49.7934 58.8361 49.5197 58.9051C49.1972 58.9554 48.8672 58.8943 48.584 58.732C47.5688 58.2033 47.1478 56.9776 46.9513 55.8501C46.6487 54.4823 46.8306 53.0519 47.4659 51.8033Z" fill="#6694C6"/>
<path d="M47.4659 51.8033L51.1431 49.9741C51.6063 49.7657 52.0442 49.5052 52.4484 49.1975C54.6332 47.4197 54.5115 44.1355 55.6437 41.5577C55.6999 41.3846 55.8139 41.2359 55.9665 41.1367C56.1007 41.0921 56.2439 41.0825 56.3829 41.1086L57.8659 41.2864L56.6823 49.9928C56.6179 50.6304 56.4798 51.2584 56.2706 51.8641C56.0878 52.2914 55.862 52.6989 55.5969 53.0805C54.1755 55.2132 52.3683 57.0616 50.2682 58.5308C50.0488 58.7084 49.7934 58.8361 49.5197 58.9051C49.1972 58.9554 48.8672 58.8943 48.584 58.732C47.5688 58.2033 47.1478 56.9776 46.9513 55.8501C46.6487 54.4823 46.8306 53.0519 47.4659 51.8033Z" fill="url(#paint11_linear)"/>
<path d="M198.999 155.303H44.0938V163.995H198.999V155.303Z" fill="#6694C6"/>
<path d="M198.999 156.884H44.0938V163.995H198.999V156.884Z" fill="url(#paint12_linear)"/>
<path d="M221.454 160.767C220.771 163.948 218.904 167.364 215.452 170.264C209.117 175.588 200.925 176.968 195.166 177.193C194.455 177.221 193.763 177.235 193.042 177.235C187.896 177.235 182.75 176.556 177.772 175.897L174.245 175.429C168.28 174.685 161.407 174.072 155.344 176.21L154.811 174.694L154.254 173.123C160.986 170.746 168.312 171.392 174.647 172.187C175.831 172.332 177.014 172.491 178.202 172.655C183.732 173.385 189.454 174.142 195.045 173.927C200.289 173.721 207.728 172.486 213.351 167.761C215.592 165.89 217.562 163.139 218.259 160.229C218.653 158.701 218.612 157.094 218.142 155.588C217.938 154.963 217.657 154.365 217.304 153.81C215.714 151.298 212.855 149.684 210.408 148.964C206.773 147.892 202.806 148.028 198.96 148.164H198.82V146.689L198.96 145C202.909 144.855 207.124 144.585 211.335 145.829C216.233 147.27 219.943 150.545 221.253 154.582C221.858 156.591 221.927 158.723 221.454 160.767Z" fill="#6694C6"/>
<path d="M221.521 158.989C221.24 162.652 219.383 166.863 215.256 170.334C208.922 175.654 200.725 177.038 194.966 177.258C194.26 177.286 193.563 177.3 192.842 177.3C187.696 177.3 182.55 176.622 177.577 175.962L174.045 175.495C168.08 174.751 161.207 174.138 155.149 176.276L154.059 173.188C154.33 173.095 154.601 173.001 154.877 172.917L155.411 174.433C161.493 172.295 168.346 172.907 174.311 173.651L177.839 174.119C182.821 174.779 187.953 175.457 193.109 175.457C193.815 175.457 194.512 175.457 195.233 175.415C200.992 175.19 209.184 173.81 215.518 168.486C218.971 165.586 220.838 162.171 221.521 158.989Z" fill="url(#paint13_linear)"/>
<path d="M141.834 157.759L163.963 162.812L159.748 182.176L145.105 189.198L125.039 180.463L138.499 174.447L141.834 157.759Z" fill="#6694C6"/>
<path d="M141.834 157.759L163.963 162.812L159.748 182.176L145.105 189.198L125.039 180.463L138.499 174.447L141.834 157.759Z" fill="url(#paint14_linear)"/>
<path d="M140.383 157.366L162.512 162.414L158.296 181.778L143.939 188.763L123.873 180.024L137.047 174.049L140.383 157.366Z" fill="#5989BF"/>
<path d="M139.855 174.138L156.983 179.542L160.539 163.864L142.756 160.047L139.855 174.138Z" fill="#6694C6"/>
<path d="M217.796 153.899L217.3 153.806C215.71 151.294 212.851 149.68 210.404 148.959C206.769 147.888 202.676 148.023 198.83 148.164L198.83 146.5C198.83 146.5 207.209 146.124 212.196 148.519C215.359 150.044 217.796 153.899 217.796 153.899Z" fill="url(#paint15_linear)"/>
</g>
<defs>
<linearGradient id="paint0_linear" x1="203.017" y1="164.898" x2="222.966" y2="164.898" gradientUnits="userSpaceOnUse">
<stop stop-opacity="0"/>
<stop offset="0.99"/>
</linearGradient>
<linearGradient id="paint1_linear" x1="17300" y1="14312.1" x2="79041.4" y2="14312.1" gradientUnits="userSpaceOnUse">
<stop stop-opacity="0"/>
<stop offset="0.99"/>
</linearGradient>
<linearGradient id="paint2_linear" x1="534.334" y1="2259.77" x2="1162.06" y2="2169.1" gradientUnits="userSpaceOnUse">
<stop stop-opacity="0"/>
<stop offset="0.99"/>
</linearGradient>
<linearGradient id="paint3_linear" x1="280.945" y1="-97.3614" x2="22.7651" y2="186.11" gradientUnits="userSpaceOnUse">
<stop stop-color="white" stop-opacity="0"/>
<stop offset="0.99" stop-color="white"/>
</linearGradient>
<linearGradient id="paint4_linear" x1="124.272" y1="-3.42564e+06" x2="115978" y2="1.85713e+06" gradientUnits="userSpaceOnUse">
<stop stop-color="#777777" stop-opacity="0"/>
<stop offset="0.99" stop-color="#777777"/>
</linearGradient>
<linearGradient id="paint5_linear" x1="55.8969" y1="38.6477" x2="58.5916" y2="38.6477" gradientUnits="userSpaceOnUse">
<stop stop-color="#ECC4D7"/>
<stop offset="0.42" stop-color="#EFD4D1"/>
<stop offset="1" stop-color="#F2EAC9"/>
</linearGradient>
<linearGradient id="paint6_linear" x1="1335.42" y1="4004.55" x2="4848.73" y2="1440.99" gradientUnits="userSpaceOnUse">
<stop stop-opacity="0"/>
<stop offset="0.99"/>
</linearGradient>
<linearGradient id="paint7_linear" x1="513.416" y1="1014.53" x2="570.019" y2="1014.53" gradientUnits="userSpaceOnUse">
<stop stop-color="#ECC4D7"/>
<stop offset="0.42" stop-color="#EFD4D1"/>
<stop offset="1" stop-color="#F2EAC9"/>
</linearGradient>
<linearGradient id="paint8_linear" x1="1202.06" y1="6734.97" x2="1348.79" y2="6719.53" gradientUnits="userSpaceOnUse">
<stop stop-opacity="0"/>
<stop offset="0.99"/>
</linearGradient>
<linearGradient id="paint9_linear" x1="363.134" y1="1171.15" x2="415.186" y2="1171.15" gradientUnits="userSpaceOnUse">
<stop stop-color="#ECC4D7"/>
<stop offset="0.42" stop-color="#EFD4D1"/>
<stop offset="1" stop-color="#F2EAC9"/>
</linearGradient>
<linearGradient id="paint10_linear" x1="570.607" y1="1027.8" x2="632.679" y2="1027.8" gradientUnits="userSpaceOnUse">
<stop stop-color="#ECC4D7"/>
<stop offset="0.42" stop-color="#EFD4D1"/>
<stop offset="1" stop-color="#F2EAC9"/>
</linearGradient>
<linearGradient id="paint11_linear" x1="1402.66" y1="2442.35" x2="-217.21" y2="1279.7" gradientUnits="userSpaceOnUse">
<stop stop-opacity="0"/>
<stop offset="0.99"/>
</linearGradient>
<linearGradient id="paint12_linear" x1="40290" y1="2766.45" x2="40290" y2="2434.57" gradientUnits="userSpaceOnUse">
<stop stop-color="white" stop-opacity="0"/>
<stop offset="0.99" stop-color="white"/>
</linearGradient>
<linearGradient id="paint13_linear" x1="32245" y1="5905.38" x2="28208.6" y2="20054.1" gradientUnits="userSpaceOnUse">
<stop stop-opacity="0"/>
<stop offset="0.99"/>
</linearGradient>
<linearGradient id="paint14_linear" x1="12429.3" y1="11864.6" x2="15217" y2="14487.3" gradientUnits="userSpaceOnUse">
<stop stop-opacity="0"/>
<stop offset="0.99"/>
</linearGradient>
<linearGradient id="paint15_linear" x1="8930.2" y1="2580.37" x2="8570.13" y2="3466.87" gradientUnits="userSpaceOnUse">
<stop stop-opacity="0"/>
<stop offset="0.99" stop-color="#6F6F6F"/>
</linearGradient>
<clipPath id="clip0">
<rect width="240" height="203.149" fill="white"/>
</clipPath>
</defs>
</svg>
