<svg width="185" height="44" viewBox="0 0 185 44" fill="none" xmlns="http://www.w3.org/2000/svg">
<path d="M54.44 13.56H58.736V30.096H63.2V33H54.44V13.56ZM64.8646 14.064H68.8006V16.776H64.8646V14.064ZM64.8886 19.128H68.8006V33H64.8886V19.128ZM76.7808 13.56H80.4288L81.5808 24.888L83.0448 13.584H85.9008L87.4368 24.816L88.6128 13.56H92.2128L89.8848 33H86.1408L84.4848 21.264L82.9248 33H79.1328L76.7808 13.56ZM98.5803 33.24C97.0603 33.24 95.8763 32.84 95.0283 32.04C94.1803 31.224 93.7563 30.08 93.7563 28.608V23.52C93.7563 22.048 94.1803 20.912 95.0283 20.112C95.8763 19.296 97.0603 18.888 98.5803 18.888C100.116 18.888 101.268 19.28 102.036 20.064C102.804 20.848 103.188 22 103.188 23.52V26.304H97.6203V28.968C97.6203 29.96 97.9403 30.456 98.5803 30.456C99.2523 30.456 99.5883 30.008 99.5883 29.112V27.648H103.188V28.992C103.188 30.384 102.78 31.44 101.964 32.16C101.164 32.88 100.036 33.24 98.5803 33.24ZM99.5883 24.48V23.088C99.5883 22.576 99.4923 22.216 99.3003 22.008C99.1243 21.784 98.8763 21.672 98.5563 21.672C98.2523 21.672 98.0203 21.792 97.8603 22.032C97.7003 22.272 97.6203 22.696 97.6203 23.304V24.48H99.5883ZM109.59 33.24C108.358 33.24 107.334 32.968 106.518 32.424C105.718 31.864 105.07 30.976 104.574 29.76L107.238 28.584C107.494 29.224 107.79 29.72 108.126 30.072C108.478 30.424 108.862 30.6 109.278 30.6C109.886 30.6 110.19 30.36 110.19 29.88C110.19 29.528 110.07 29.216 109.83 28.944C109.59 28.656 109.07 28.184 108.27 27.528L107.262 26.688C106.43 25.984 105.822 25.344 105.438 24.768C105.07 24.192 104.886 23.504 104.886 22.704C104.886 21.968 105.078 21.312 105.462 20.736C105.862 20.16 106.39 19.712 107.046 19.392C107.702 19.056 108.406 18.888 109.158 18.888C110.294 18.888 111.238 19.2 111.99 19.824C112.758 20.432 113.302 21.312 113.622 22.464L111.102 23.616C110.942 23.104 110.694 22.648 110.358 22.248C110.022 21.832 109.654 21.624 109.254 21.624C108.998 21.624 108.79 21.696 108.63 21.84C108.486 21.984 108.414 22.176 108.414 22.416C108.414 22.704 108.566 23.016 108.87 23.352C109.19 23.688 109.686 24.128 110.358 24.672L111.342 25.536C112.142 26.208 112.758 26.84 113.19 27.432C113.622 28.008 113.838 28.688 113.838 29.472C113.838 30.256 113.638 30.936 113.238 31.512C112.854 32.072 112.334 32.504 111.678 32.808C111.038 33.096 110.342 33.24 109.59 33.24ZM119.786 33.144C118.762 33.144 117.97 33 117.41 32.712C116.85 32.408 116.458 31.976 116.234 31.416C116.01 30.856 115.898 30.128 115.898 29.232V21.696H114.554V19.128H115.898V14.904H119.858V19.128H121.826V21.696H119.858V28.848C119.858 29.232 119.962 29.52 120.17 29.712C120.394 29.888 120.698 29.976 121.082 29.976C121.402 29.976 121.754 29.944 122.138 29.88V32.952C121.37 33.08 120.586 33.144 119.786 33.144ZM135.899 33.288C133.787 33.288 132.283 32.736 131.387 31.632C130.507 30.512 130.067 28.904 130.067 26.808V19.8C130.067 17.656 130.507 16.04 131.387 14.952C132.267 13.848 133.771 13.296 135.899 13.296C137.931 13.296 139.371 13.784 140.219 14.76C141.067 15.736 141.491 17.12 141.491 18.912V20.592H137.291V18.648C137.291 17.896 137.211 17.32 137.051 16.92C136.891 16.52 136.507 16.32 135.899 16.32C135.291 16.32 134.891 16.536 134.699 16.968C134.507 17.384 134.411 17.968 134.411 18.72V27.864C134.411 28.632 134.507 29.224 134.699 29.64C134.907 30.04 135.307 30.24 135.899 30.24C136.491 30.24 136.867 30.04 137.027 29.64C137.203 29.224 137.291 28.632 137.291 27.864V25.824H141.491V27.504C141.491 29.328 141.067 30.752 140.219 31.776C139.371 32.784 137.931 33.288 135.899 33.288ZM143.806 13.56H147.694V33H143.806V13.56ZM154.784 33.24C153.264 33.24 152.072 32.856 151.208 32.088C150.36 31.32 149.936 30.192 149.936 28.704V23.424C149.936 21.936 150.36 20.808 151.208 20.04C152.072 19.272 153.264 18.888 154.784 18.888C156.304 18.888 157.496 19.28 158.36 20.064C159.224 20.832 159.656 21.952 159.656 23.424V28.704C159.656 30.176 159.224 31.304 158.36 32.088C157.496 32.856 156.304 33.24 154.784 33.24ZM154.808 30.648C155.176 30.648 155.432 30.512 155.576 30.24C155.72 29.952 155.792 29.528 155.792 28.968V23.16C155.792 22.6 155.72 22.184 155.576 21.912C155.432 21.624 155.176 21.48 154.808 21.48C154.44 21.48 154.176 21.624 154.016 21.912C153.872 22.2 153.8 22.616 153.8 23.16V28.968C153.8 29.528 153.872 29.952 154.016 30.24C154.176 30.512 154.44 30.648 154.808 30.648ZM164.274 33.24C163.442 33.24 162.802 32.944 162.354 32.352C161.906 31.744 161.682 30.96 161.682 30V19.128H165.594V29.544C165.594 29.896 165.658 30.16 165.786 30.336C165.914 30.512 166.122 30.6 166.41 30.6C166.666 30.6 167.05 30.456 167.562 30.168V19.128H171.45V33H167.562V31.728C166.474 32.736 165.378 33.24 164.274 33.24ZM176.919 33.24C175.879 33.24 175.079 32.88 174.519 32.16C173.975 31.44 173.703 30.376 173.703 28.968V23.232C173.703 21.904 173.975 20.848 174.519 20.064C175.079 19.28 175.879 18.888 176.919 18.888C177.895 18.888 178.807 19.256 179.655 19.992V13.56H183.567V33H179.655V31.92C178.743 32.8 177.831 33.24 176.919 33.24ZM178.623 30.744C178.927 30.744 179.271 30.624 179.655 30.384V21.624C179.271 21.416 178.935 21.312 178.647 21.312C178.311 21.312 178.055 21.456 177.879 21.744C177.719 22.016 177.639 22.376 177.639 22.824V29.208C177.639 29.672 177.719 30.048 177.879 30.336C178.039 30.608 178.287 30.744 178.623 30.744Z" fill="white"/>
<g clip-path="url(#clip0)">
<path fill-rule="evenodd" clip-rule="evenodd" d="M21.9878 0C34.1249 0 44 9.89939 44 22.0365C44 34.1493 34.1249 44.0486 21.9878 44.0486C9.87507 44.0486 0 34.1493 0 22.0365C0 9.89939 9.87507 0 21.9878 0ZM21.9878 3.52681C32.1061 3.52681 40.3759 11.7966 40.3759 21.9392C40.3759 32.0575 32.1061 40.3273 21.9878 40.3273C11.8695 40.3273 3.6241 32.0575 3.6241 21.9392C3.6241 11.7966 11.8695 3.52681 21.9878 3.52681ZM21.9392 1.82421C22.0851 1.79989 22.2067 1.77557 22.3527 1.75124L22.4743 1.50802L22.6689 1.53234V1.82421L23.3013 1.75124C23.2526 1.82421 23.2283 1.99447 23.131 2.0188L22.5959 2.11609L22.4986 2.35931C22.4256 2.35931 22.304 2.38364 22.2797 2.31067L22.2554 2.0188L21.9149 1.99447L21.9392 1.82421ZM24.1039 3.21061C23.1797 2.7728 22.1095 2.87009 20.9176 3.06468C20.796 3.089 20.8203 2.89442 20.8933 2.87009C22.0365 2.62687 23.1553 2.5539 24.2012 2.89442C24.3715 2.94306 24.1526 3.089 24.1039 3.21061ZM21.0149 0.729685C22.1095 1.04588 23.0337 1.14317 24.1282 0.851299C24.2012 0.924268 24.2012 0.972913 24.1039 0.997236C23.1553 1.26479 22.2797 1.36208 20.942 1.04588C20.7717 1.02156 20.8933 0.681039 21.0149 0.729685Z" fill="white"/>
<path fill-rule="evenodd" clip-rule="evenodd" d="M4.86523 16.7098L8.3434 16.9531L9.85142 14.9829L9.87574 16.9774L12.0405 17.0504L9.82709 18.1449L9.87574 20.8934L8.6596 18.7773L6.3246 19.8718L7.63804 17.9989L4.86523 16.7098Z" fill="white"/>
<path d="M12.9144 17.6096C12.7442 17.634 12.5739 17.6583 12.5253 17.3178C12.4766 16.9772 12.6469 16.9529 12.8172 16.9286C17.9249 16.1989 22.522 16.2719 25.9758 16.8313C30.062 17.4637 32.6403 18.8014 32.8105 20.2851V20.3338C32.7619 21.6715 31.9106 22.7417 30.5728 23.5201C30.9377 24.0795 31.035 24.6876 30.816 25.3443H30.7917C30.3296 26.5604 29.5026 27.4604 28.5054 28.1171C28.7973 28.5306 28.9189 29.017 28.8459 29.5521C28.7 30.8169 28.0676 31.7655 27.1919 32.4466C27.2163 32.5682 27.2406 32.7141 27.2649 32.86C27.2892 33.3465 27.2406 33.8086 27.0947 34.2221C26.8271 35.0005 26.292 35.6085 25.5623 36.0463C24.8326 36.4598 23.957 36.7274 23.0084 36.8003C21.9382 36.8976 20.7464 36.7517 19.6275 36.3625C19.4816 36.3139 19.3114 36.2652 19.433 35.949C19.5303 35.6085 19.7005 35.6572 19.8465 35.7301C20.868 36.0707 21.9625 36.1923 22.9598 36.1193C23.8111 36.0463 24.5894 35.8031 25.1975 35.4383C25.8055 35.0977 26.2434 34.6113 26.4379 34.0032C26.5596 33.687 26.6082 33.3222 26.5596 32.9087C26.5596 32.8844 26.5596 32.8844 26.5596 32.86C25.9515 33.2249 25.2461 33.4681 24.5164 33.6384C23.7138 33.833 22.8382 33.9059 22.0355 33.8816C21.2329 33.8573 20.4788 33.7357 19.8465 33.5168C18.7519 33.1519 18.0222 32.5438 18.0466 31.7412C18.0466 31.0358 18.8006 30.5494 19.8465 30.2818C20.4545 30.1359 21.1599 30.0629 21.8896 30.0629C22.6193 30.0629 23.3976 30.1359 24.1029 30.2818C25.2948 30.5494 26.3406 31.0358 26.8757 31.8142C27.5568 31.2304 28.0432 30.4521 28.1649 29.4548C28.2135 29.09 28.1162 28.7495 27.9216 28.4576C26.6325 29.1387 25.1002 29.4792 23.5678 29.5765C22.4976 29.6494 21.4274 29.6008 20.4545 29.4548C19.4816 29.3089 18.5817 29.0657 17.8763 28.7738C16.7818 28.336 16.0521 27.7279 16.0278 27.0712C15.9791 26.3658 16.7331 25.8794 17.9249 25.6362C18.8492 25.4416 20.0897 25.3929 21.3788 25.4902C22.6679 25.5632 24.03 25.7821 25.2218 26.1226C26.3893 26.4875 27.3865 26.9496 28.0676 27.582C28.9675 26.9982 29.7215 26.1956 30.1593 25.1254C30.3053 24.6632 30.2323 24.2498 29.9647 23.8606C29.2107 24.2254 28.3594 24.5173 27.4352 24.7605C26.0001 25.1254 24.4435 25.32 22.8868 25.3686C21.3545 25.4416 19.8221 25.3443 18.5087 25.1254C16.1737 24.7119 14.4711 23.812 14.3495 22.4742C14.3495 22.4499 14.3738 22.3283 14.3738 22.3039C15.1035 20.5527 19.1897 20.0419 23.1057 20.5284C24.3219 20.6743 25.538 20.9175 26.6325 21.2337C27.727 21.5743 28.7 21.9634 29.4296 22.4742C29.6972 22.6445 29.9161 22.8147 30.1107 23.0093C31.3025 22.3283 32.0808 21.4283 32.1295 20.3338C31.9592 19.1663 29.5999 18.0718 25.8785 17.488C22.4733 16.9772 17.9736 16.9043 12.9144 17.6096ZM27.2649 24.0795C28.0676 23.8849 28.8216 23.6417 29.454 23.3255C29.3324 23.2282 29.2107 23.1309 29.0648 23.0336C28.3838 22.5958 27.4595 22.2066 26.4379 21.8904C25.3921 21.5743 24.2002 21.3553 23.0084 21.2094C19.433 20.7716 15.7359 21.1121 15.0549 22.4985C15.2008 23.4228 16.6602 24.0795 18.6303 24.4443C19.8951 24.6632 21.3788 24.7362 22.8625 24.6876C24.3705 24.6389 25.9028 24.4443 27.2649 24.0795ZM23.5192 28.8954C24.8813 28.7981 26.2677 28.5063 27.4352 27.9225C26.8514 27.4604 26.0001 27.0712 25.0272 26.7793C23.884 26.4631 22.5949 26.2442 21.3301 26.1713C20.0897 26.0983 18.9222 26.1469 18.0466 26.3172C17.2196 26.4875 16.6845 26.7307 16.7088 27.0469C16.7331 27.4117 17.2682 27.8009 18.1195 28.1414C18.8006 28.409 19.6275 28.6279 20.5518 28.7738C21.4761 28.8954 22.4976 28.9441 23.5192 28.8954ZM24.3705 32.9573C25.0759 32.8114 25.7326 32.5682 26.3163 32.2033C25.8785 31.5953 25.0029 31.1818 23.957 30.9629C23.3003 30.8169 22.5949 30.744 21.8896 30.744C21.2085 30.744 20.5518 30.8169 20.0167 30.9629C19.2627 31.1331 18.7276 31.425 18.7276 31.7655C18.7276 32.2277 19.2384 32.6168 20.0654 32.86C20.6248 33.0546 21.3301 33.1519 22.0598 33.1762C22.8138 33.2006 23.6165 33.1519 24.3705 32.9573Z" fill="white"/>
<path fill-rule="evenodd" clip-rule="evenodd" d="M21.04 9.04806L22.9372 5.13208L24.3479 9.24264L23.6669 26.974L25.4668 12.9397L26.6586 15.445L22.7913 38.3814L18.6321 15.3963L19.8725 12.8424L21.7697 26.9983L21.04 9.04806Z" fill="white"/>
<path d="M30.6231 23.4958C30.5987 23.4958 30.5987 23.5202 30.5744 23.5202C30.9393 24.0796 31.0366 24.6877 30.8177 25.3444H30.7933C30.3312 26.5605 29.5042 27.4605 28.507 28.1172C28.7989 28.5307 28.9205 29.0171 28.8475 29.5522C28.7016 30.817 28.0692 31.7656 27.1936 32.4467C27.2179 32.5683 27.2422 32.7142 27.2665 32.8601C27.2908 33.3466 27.2422 33.8087 27.0963 34.2222C26.8287 35.0006 26.2936 35.6086 25.5639 36.0464C24.8342 36.4599 23.9586 36.7275 23.01 36.8004C21.9398 36.8977 20.748 36.7518 19.6292 36.3626C19.4832 36.314 19.313 36.2653 19.4346 35.9491C19.5319 35.6086 19.7021 35.6573 19.8481 35.7302C20.8696 36.0708 21.9641 36.1924 22.9614 36.1194C23.8127 36.0464 24.591 35.8032 25.1991 35.4384C25.8072 35.0978 26.245 34.6114 26.4395 34.0033C26.5612 33.6871 26.6098 33.3223 26.5612 32.9088C26.5612 32.8845 26.5612 32.8845 26.5612 32.8601C25.9531 33.225 25.2477 33.4682 24.518 33.6385C23.7154 33.8331 22.8398 33.906 22.0371 33.8817C21.2345 33.8574 20.4805 33.7358 19.8481 33.5169C18.7535 33.152 18.0238 32.5439 18.0482 31.7413C18.0482 31.0359 18.8022 30.5495 19.8481 30.2819C20.1399 30.209 20.4561 30.1603 20.7966 30.1117V30.817C20.5291 30.8413 20.2615 30.89 20.0183 30.963C19.2643 31.1332 18.7292 31.4251 18.7292 31.7656C18.7292 32.2277 19.24 32.6169 20.067 32.8601C20.6264 33.0547 21.3318 33.152 22.0614 33.1763C22.8154 33.2007 23.6181 33.152 24.3721 32.9574C25.0775 32.8115 25.7342 32.5683 26.3179 32.2034C25.9774 31.717 25.3207 31.3521 24.5424 31.1089V30.4035C25.5396 30.6711 26.3909 31.1332 26.8774 31.8143C27.5584 31.2305 28.0449 30.4522 28.1665 29.4549C28.2151 29.0901 28.1178 28.7496 27.9232 28.4577C26.6341 29.1387 25.1018 29.4793 23.5695 29.5766C22.4992 29.6495 21.429 29.6009 20.4561 29.4549C19.4832 29.309 18.5833 29.0658 17.8779 28.7739C16.7834 28.3361 16.0537 27.728 16.0294 27.0713C15.9807 26.3659 16.7347 25.8795 17.9266 25.6363C18.8265 25.466 20.0183 25.393 21.2831 25.466H20.067V26.1227C19.313 26.147 18.6076 26.1957 18.0482 26.3173C17.2212 26.4876 16.6861 26.7308 16.7104 27.047C16.7347 27.4118 17.2698 27.801 18.1211 28.1415C18.8022 28.4091 19.6292 28.628 20.5534 28.7739C21.4777 28.8955 22.4992 28.9442 23.5208 28.8955C24.8829 28.7982 26.2693 28.5064 27.4368 27.9226C26.9503 27.5334 26.2693 27.1929 25.491 26.9254V26.22C26.5368 26.5605 27.4611 26.9983 28.0692 27.5821C28.9691 26.9983 29.7231 26.1957 30.1609 25.1255C30.3069 24.6633 30.2339 24.2499 29.9664 23.8607C29.2123 24.2255 28.361 24.5174 27.4368 24.7606C26.0017 25.1255 24.4451 25.3201 22.8884 25.3687C21.3561 25.4417 19.8237 25.3444 18.5103 25.1255C16.832 24.8093 15.4699 24.2742 14.8132 23.4958H15.8348C16.4672 23.9093 17.4644 24.2255 18.6319 24.4444C19.8967 24.6633 21.3804 24.7363 22.8641 24.6877C24.3721 24.639 25.9044 24.4444 27.2665 24.0796C27.9232 23.9337 28.5313 23.7148 29.0907 23.4958H30.6231Z" fill="white"/>
</g>
<defs>
<clipPath id="clip0">
<rect width="44" height="44" fill="white"/>
</clipPath>
</defs>
</svg>
