<svg width="267" height="226" viewBox="0 0 267 226" fill="none" xmlns="http://www.w3.org/2000/svg">
<g clip-path="url(#clip0)">
<path opacity="0.18" d="M23.4281 46.5649C15.0608 59.9151 6.20128 75.1558 7.0575 92.5405C7.73939 106.322 14.5532 118.72 14.4507 132.509C14.3481 146.297 7.27283 159.223 8.81094 172.923C10.5234 188.472 22.5975 198.089 34.0359 201.781C58.1841 209.576 83.3527 201.096 108.116 198.493C127.127 196.499 146.236 198.02 165.267 199.541L218.737 203.788C225.915 204.363 233.349 204.89 240.06 201.452C246.212 198.308 251.18 192.109 255.441 185.458C264.777 170.963 271.786 152.092 269.597 133.201C266.064 102.747 247 86 238 55C232 43 232.5 46 229 43C227.385 39.6779 213.507 35.6029 211 33.5C195.373 20.4169 169.442 14.1107 151 14.2066L85.9931 1.35644C76.0313 1.40438 59.2608 -2.98631 50.509 3.78126C46.0792 7.19929 23.4281 40.0782 23.4281 46.5649Z" fill="#6694C6"/>
<path opacity="0.1" d="M248.001 147.943C248.393 153.116 247.422 157.53 245.787 159.923C244.152 162.317 241.708 163.811 239.181 164.606C236.653 165.402 228.449 167.814 225.838 167.985C228.376 167.061 238.142 163.602 239.416 160.866C239.948 159.608 240.415 158.314 240.815 156.991C241.677 154.451 242.805 142.563 244.471 140.61C246.408 138.357 247.813 145.434 248.001 147.943Z" fill="url(#paint0_linear)"/>
<path d="M221.387 20.0249H48.9492V141.286H221.387V20.0249Z" fill="#6694C6"/>
<path d="M221.387 20.0249H48.9492V141.286H221.387V20.0249Z" fill="url(#paint1_linear)"/>
<path d="M114.296 87.6223H105.332V83.1943L112.928 65.0143H119.912V83.1583H122.612V87.6223H119.912V94.1743H114.296V87.6223ZM114.296 83.1583V71.0263L109.904 83.1583H114.296ZM135.731 94.7143C133.163 94.7143 131.195 93.9583 129.827 92.4463C128.459 90.9343 127.775 88.9063 127.775 86.3623V73.1503C127.775 70.4863 128.435 68.3983 129.755 66.8863C131.099 65.3503 133.091 64.5823 135.731 64.5823C138.371 64.5823 140.351 65.3503 141.671 66.8863C142.991 68.3983 143.651 70.4863 143.651 73.1503V86.3623C143.651 88.8823 142.955 90.9103 141.563 92.4463C140.195 93.9583 138.251 94.7143 135.731 94.7143ZM135.731 89.3503C136.475 89.3503 136.955 89.0383 137.171 88.4143C137.411 87.7903 137.531 87.0583 137.531 86.2183V73.2943C137.531 72.3343 137.423 71.5423 137.207 70.9183C137.015 70.2703 136.523 69.9463 135.731 69.9463C134.939 69.9463 134.435 70.2583 134.219 70.8823C134.027 71.5063 133.931 72.3103 133.931 73.2943V86.2183C133.931 88.3063 134.531 89.3503 135.731 89.3503ZM158.008 87.6223H149.044V83.1943L156.64 65.0143H163.624V83.1583H166.324V87.6223H163.624V94.1743H158.008V87.6223ZM158.008 83.1583V71.0263L153.616 83.1583H158.008Z" fill="white"/>
<path d="M246.627 148.7C245.861 152.856 243.77 157.317 239.901 161.105C232.802 168.06 223.623 169.862 217.169 170.156C216.373 170.192 215.597 170.211 214.789 170.211C209.023 170.211 203.256 169.324 197.678 168.463L193.725 167.852C187.041 166.88 179.34 166.08 172.546 168.872L171.948 166.892L171.324 164.839C178.868 161.735 187.078 162.578 194.176 163.617C195.502 163.806 196.829 164.014 198.16 164.228C204.357 165.181 210.768 166.171 217.033 165.89C222.91 165.621 231.245 164.008 237.547 157.836C240.058 155.392 242.265 151.799 243.046 147.998C243.488 146.002 243.443 143.903 242.915 141.936C242.687 141.119 242.372 140.339 241.977 139.614C240.194 136.332 236.991 134.224 234.249 133.283C230.176 131.883 225.73 132.061 221.421 132.238H221.264V130.312L221.421 128.105C225.846 127.916 230.569 127.563 235.287 129.189C240.776 131.071 244.934 135.348 246.401 140.622C247.079 143.246 247.157 146.031 246.627 148.7Z" fill="#7CA3CF"/>
<path d="M246.974 146.848C246.659 151.744 244.577 157.372 239.95 162.012C232.846 169.122 223.655 170.973 217.197 171.267C216.405 171.304 215.623 171.323 214.815 171.323C209.044 171.323 203.273 170.416 197.697 169.534L193.736 168.909C187.047 167.915 179.34 167.096 172.547 169.953L171.324 165.826C171.628 165.701 171.933 165.576 172.242 165.464L172.84 167.49C179.66 164.632 187.346 165.451 194.035 166.445L197.991 167.071C203.578 167.952 209.333 168.859 215.114 168.859C215.906 168.859 216.688 168.859 217.496 168.803C223.954 168.503 233.14 166.658 240.243 159.542C244.115 155.665 246.208 151.1 246.974 146.848Z" fill="url(#paint2_linear)"/>
<path d="M157.784 144.623L182.45 151.417L177.751 177.455L161.429 186.898L139.062 175.153L154.066 167.062L157.784 144.623Z" fill="#6694C6"/>
<path d="M157.784 144.623L182.45 151.417L177.751 177.455L161.429 186.898L139.062 175.153L154.066 167.062L157.784 144.623Z" fill="url(#paint3_linear)"/>
<path d="M156.488 144.623L181.337 151.241L176.603 176.628L160.481 185.785L137.949 174.328L152.743 166.495L156.488 144.623Z" fill="#5989BF"/>
<path d="M155.75 166.456L175.096 173.548L179.113 152.972L159.026 147.961L155.75 166.456Z" fill="#71A0D2"/>
<path d="M242.524 140.174L241.972 140.047C240.199 136.658 237.013 134.48 234.286 133.508C230.235 132.062 225.673 132.246 221.387 132.435L221.387 130.19C221.387 130.19 230.725 129.683 236.283 132.915C239.808 134.972 242.524 140.174 242.524 140.174Z" fill="url(#paint4_linear)"/>
</g>
<defs>
<linearGradient id="paint0_linear" x1="225.822" y1="154.065" x2="248.09" y2="154.065" gradientUnits="userSpaceOnUse">
<stop stop-opacity="0"/>
<stop offset="0.99"/>
</linearGradient>
<linearGradient id="paint1_linear" x1="135.168" y1="20.0249" x2="135.168" y2="141.286" gradientUnits="userSpaceOnUse">
<stop stop-color="#83AEDB"/>
<stop offset="1" stop-color="#415A75"/>
</linearGradient>
<linearGradient id="paint2_linear" x1="36157.3" y1="7827.5" x2="29924" y2="26158.4" gradientUnits="userSpaceOnUse">
<stop stop-opacity="0"/>
<stop offset="0.99"/>
</linearGradient>
<linearGradient id="paint3_linear" x1="13854.3" y1="15886.4" x2="17496.7" y2="18727.1" gradientUnits="userSpaceOnUse">
<stop stop-opacity="0"/>
<stop offset="0.99"/>
</linearGradient>
<linearGradient id="paint4_linear" x1="9952.41" y1="3414.01" x2="9400.66" y2="4536.1" gradientUnits="userSpaceOnUse">
<stop stop-opacity="0"/>
<stop offset="0.99" stop-color="#6F6F6F"/>
</linearGradient>
<clipPath id="clip0">
<rect width="267" height="226" fill="white"/>
</clipPath>
</defs>
</svg>
