<svg width="20" height="24" viewBox="0 0 20 24" fill="none" xmlns="http://www.w3.org/2000/svg">
<path fill-rule="evenodd" clip-rule="evenodd" d="M11.6321 0.843537C11.8124 1.09751 12.0425 1.32442 12.3341 1.43394C14.9996 2.43516 17 5.16267 17 9C17 11.6246 17.5317 13.1024 18.5154 14.1769C18.6823 14.3592 19.1363 14.7781 19.437 15.0555C19.5757 15.1834 19.6817 15.2812 19.712 15.3119C19.8966 15.4991 20 15.7513 20 16.0141V18.0141C20 18.5664 19.5523 19.0141 19 19.0141H14.9967C14.4457 19.0141 14.0115 19.4664 13.8777 20.0008C13.6297 20.9911 13.0116 21.8589 12.0878 22.4226C10.8059 23.2049 9.19414 23.2049 7.9122 22.4226C6.86777 21.7853 6.29127 21.073 6.08661 20.007C5.98261 19.4654 5.55349 19.0141 5.00196 19.0141H1C0.447715 19.0141 0 18.5664 0 18.0141V16.0141C0 15.7513 0.103446 15.4991 0.287965 15.3119C0.321393 15.2783 0.431941 15.1766 0.574646 15.0453L0.574652 15.0453L0.574677 15.0453C0.876316 14.7678 1.32161 14.3582 1.48596 14.1793C2.46898 13.1098 3 11.6339 3 9C3 5.15169 4.99768 2.42909 7.66602 1.43153C7.95793 1.3224 8.1885 1.09562 8.36917 0.841691C8.44482 0.735371 8.53197 0.635017 8.63051 0.54243C9.40027 -0.18081 10.5997 -0.18081 11.3695 0.54243C11.4686 0.635553 11.5562 0.736532 11.6321 0.843537ZM8.16745 19.9928C7.91597 19.5002 8.44897 19.0141 9.00205 19.0141H10.9936C11.5484 19.0141 12.0228 19.4934 11.756 19.9798C11.5946 20.2741 11.3555 20.5265 11.046 20.7154C10.4037 21.1073 9.59627 21.1073 8.95402 20.7154C8.55015 20.4689 8.30708 20.2663 8.16745 19.9928Z" fill="white"/>
</svg>
