<svg width="28" height="28" viewBox="0 0 28 28" fill="none" xmlns="http://www.w3.org/2000/svg">
<path d="M18.375 1.75H16.4745C16.114 0.7315 15.141 0 14 0C12.859 0 11.886 0.7315 11.5238 1.75H9.625C9.142 1.75 8.75 2.142 8.75 2.625V6.125C8.75 6.608 9.142 7 9.625 7H18.375C18.858 7 19.25 6.608 19.25 6.125V2.625C19.25 2.142 18.858 1.75 18.375 1.75Z" fill="white"/>
<path d="M22.75 3.5H21V6.125C21 7.57225 19.8223 8.75 18.375 8.75H9.625C8.17775 8.75 7 7.57225 7 6.125V3.5H5.25C4.28575 3.5 3.5 4.28575 3.5 5.25V26.25C3.5 27.2318 4.26825 28 5.25 28H22.75C23.7318 28 24.5 27.2318 24.5 26.25V5.25C24.5 4.26825 23.7318 3.5 22.75 3.5ZM13.7445 18.9945L10.2445 22.4945C10.073 22.6642 9.849 22.75 9.625 22.75C9.401 22.75 9.177 22.6642 9.0055 22.4945L7.2555 20.7445C6.91425 20.4032 6.91425 19.8485 7.2555 19.5072C7.59675 19.166 8.1515 19.166 8.49275 19.5072L9.625 20.6378L12.5055 17.7573C12.8468 17.416 13.4015 17.416 13.7428 17.7573C14.084 18.0985 14.0858 18.6515 13.7445 18.9945ZM13.7445 11.9945L10.2445 15.4945C10.073 15.6643 9.849 15.75 9.625 15.75C9.401 15.75 9.177 15.6643 9.0055 15.4945L7.2555 13.7445C6.91425 13.4032 6.91425 12.8485 7.2555 12.5072C7.59675 12.166 8.1515 12.166 8.49275 12.5072L9.625 13.6378L12.5055 10.7572C12.8468 10.416 13.4015 10.416 13.7428 10.7572C14.084 11.0985 14.0858 11.6515 13.7445 11.9945ZM20.125 21H16.625C16.142 21 15.75 20.608 15.75 20.125C15.75 19.642 16.142 19.25 16.625 19.25H20.125C20.608 19.25 21 19.642 21 20.125C21 20.608 20.608 21 20.125 21ZM20.125 14H16.625C16.142 14 15.75 13.608 15.75 13.125C15.75 12.642 16.142 12.25 16.625 12.25H20.125C20.608 12.25 21 12.642 21 13.125C21 13.608 20.608 14 20.125 14Z" fill="white"/>
</svg>
