<svg width="28" height="28" viewBox="0 0 28 28" fill="none" xmlns="http://www.w3.org/2000/svg">
<path d="M7.68477 4.75714C7.68477 2.77494 9.29174 1.16797 11.2742 1.16797C13.2564 1.16797 14.8635 2.77494 14.8635 4.75714C14.8635 6.73935 13.2564 8.34626 11.2742 8.34626C9.29174 8.34631 7.68477 6.73935 7.68477 4.75714ZM12.9991 10.7916C13.0351 10.01 13.3041 9.28665 13.737 8.68864C13.4332 8.62502 13.1192 8.59123 12.7971 8.59123H9.75175C9.43052 8.59123 9.11697 8.62476 8.81476 8.6876C9.27539 9.3265 9.55091 10.1068 9.55541 10.9515C10.1153 10.6435 10.7578 10.4682 11.4402 10.4682C11.9937 10.4682 12.5207 10.5835 12.9991 10.7916ZM13.6067 11.1137C14.6492 11.7675 15.3803 12.8733 15.514 14.1575C15.9388 14.356 16.4109 14.4706 16.911 14.4706C18.7375 14.4706 20.2179 12.99 20.2179 11.1636C20.2179 9.337 18.7375 7.85674 16.911 7.85674C15.1013 7.8568 13.6341 9.31078 13.6067 11.1137ZM11.4401 17.8849C13.2663 17.8849 14.7468 16.4039 14.7468 14.578C14.7468 12.7519 13.2663 11.2711 11.4401 11.2711C9.61385 11.2711 8.13271 12.7518 8.13271 14.578C8.13277 16.4039 9.61385 17.8849 11.4401 17.8849ZM12.8429 18.1099H10.0371C7.70253 18.1099 5.80275 20.0096 5.80275 22.3445V25.7763L5.81169 25.83L6.04788 25.9035C8.27599 26.5994 10.2117 26.8321 11.8051 26.8321C14.9166 26.8321 16.7208 25.9448 16.832 25.8881L17.053 25.7762H17.0764V22.3444C17.0765 20.0096 15.1778 18.1099 12.8429 18.1099ZM18.3145 14.6963H15.5298C15.4996 15.8105 15.024 16.8139 14.272 17.5351C16.3473 18.1522 17.8657 20.0765 17.8657 22.3497V23.4071C20.6146 23.3059 22.199 22.5272 22.3033 22.4748L22.5244 22.3623H22.5478V18.9299C22.5481 16.5956 20.6485 14.6963 18.3145 14.6963ZM19.0588 7.78623C20.1014 8.44012 20.8325 9.54598 20.9659 10.8302C21.3907 11.0287 21.8628 11.143 22.3629 11.143C24.1897 11.143 25.67 9.66267 25.67 7.83653C25.67 6.00987 24.1896 4.52967 22.3629 4.52967C20.5534 4.52946 19.0864 5.98376 19.0588 7.78623ZM23.766 11.3688H20.9819C20.9517 12.483 20.4762 13.4864 19.7242 14.2075C21.7994 14.8244 23.3178 16.749 23.3178 19.0222V20.0797C26.0664 19.9786 27.6511 19.2001 27.7555 19.1472L27.9762 19.0352H28V15.6023C28.0003 13.2682 26.1007 11.3688 23.766 11.3688ZM5.63775 14.4706C6.2847 14.4706 6.88625 14.2816 7.3964 13.9599C7.55863 12.9027 8.12545 11.9787 8.93484 11.3497C8.93823 11.2876 8.94393 11.2263 8.94393 11.1637C8.94393 9.33705 7.4631 7.8568 5.63775 7.8568C3.81084 7.8568 2.33064 9.337 2.33064 11.1637C2.33064 12.9904 3.81079 14.4706 5.63775 14.4706ZM8.60755 17.5351C7.85902 16.8173 7.38512 15.8194 7.35023 14.7117C7.24728 14.704 7.14506 14.6963 7.03981 14.6963H4.23439C1.89946 14.6963 0 16.5956 0 18.9302V22.3623L0.00867049 22.4158L0.245176 22.4895C2.03224 23.0484 3.62777 23.3052 5.01353 23.3855V22.3493C5.01379 20.0765 6.53181 18.1519 8.60755 17.5351Z" fill="white"/>
</svg>
