<svg width="28" height="25" viewBox="0 0 28 25" fill="none" xmlns="http://www.w3.org/2000/svg">
<path d="M20.8073 8.99082L15.156 0.513761C14.899 0.256881 14.5138 0 14.1284 0C13.7431 0 13.3578 0.12844 13.1009 0.513761L7.44954 8.99082H1.2844C0.513761 8.99082 0 9.50459 0 10.2752C0 10.4037 0 10.5321 0 10.6605L3.21101 22.6055C3.46789 23.633 4.49541 24.5321 5.65138 24.5321H22.3486C23.5046 24.5321 24.5321 23.7615 24.789 22.6055L28 10.6605C28 10.5321 28 10.4037 28 10.2752C28 9.50459 27.4862 8.99082 26.7156 8.99082H20.8073ZM10.2752 8.99082L14.1284 3.33945L17.9817 8.99082H10.2752ZM14.1284 19.2661C12.7156 19.2661 11.5596 18.1101 11.5596 16.6972C11.5596 15.2844 12.7156 14.1284 14.1284 14.1284C15.5413 14.1284 16.6972 15.2844 16.6972 16.6972C16.6972 18.1101 15.5413 19.2661 14.1284 19.2661Z" fill="white"/>
</svg>
