<svg width="30" height="30" viewBox="0 0 30 30" fill="none" xmlns="http://www.w3.org/2000/svg">
<path d="M15.356 0.949322L15.3559 0.949277C15.2436 0.900287 15.1225 0.875 15 0.875C14.8775 0.875 14.7564 0.900287 14.6441 0.949277L14.644 0.949322L2.40882 6.30222C2.25023 6.37143 2.11526 6.48539 2.02045 6.63014C1.92564 6.77489 1.87509 6.94415 1.875 7.11719V7.11725V22.4114C1.875 22.5755 1.92037 22.7363 2.00611 22.8762H2.0061C2.09184 23.0161 2.21458 23.1296 2.36078 23.2041L2.36085 23.2041L14.5961 29.4288C14.7212 29.4925 14.8596 29.5258 15 29.5258H15.0002C15.1386 29.5256 15.2752 29.4933 15.3991 29.4316L15.3995 29.4314L27.6348 23.2832C27.7822 23.2091 27.9061 23.0955 27.9927 22.955C28.0793 22.8146 28.1251 22.6528 28.125 22.4878C28.125 22.4878 28.125 22.4878 28.125 22.4878V7.11725V7.11719C28.1249 6.94415 28.0744 6.77489 27.9795 6.63014C27.8847 6.48539 27.7498 6.37143 27.5912 6.30222L15.356 0.949322ZM15 11.4995L12.6277 10.4613L16.4503 8.78871L16.4503 8.78869C16.6087 8.71932 16.7435 8.6053 16.8381 8.46056C16.9327 8.31582 16.9831 8.14665 16.9831 7.97372C16.9831 7.8008 16.9327 7.63163 16.8381 7.48689C16.7435 7.34215 16.6087 7.22813 16.4503 7.15875L16.4501 7.15867L13.1688 5.72792C13.1688 5.72792 13.1688 5.72791 13.1688 5.72791C13.0565 5.67893 12.9354 5.65365 12.8129 5.65365C12.6905 5.65365 12.5693 5.67893 12.4571 5.72792L12.457 5.72795L7.13047 8.05599L4.98808 7.11731L15 2.73505L25.0155 7.11725L15 11.4995ZM10.014 16.3252L10.0141 16.3252C10.1497 16.393 10.3005 16.425 10.452 16.4182C10.6035 16.4113 10.7508 16.3658 10.8798 16.286C11.0088 16.2063 11.1152 16.0948 11.189 15.9623C11.2628 15.8298 11.3015 15.6807 11.3015 15.529C11.3015 15.529 11.3015 15.529 11.3015 15.529V11.8201L14.1103 13.049V27.185L3.65441 21.866V8.47762L6.46324 9.70648V13.9995C6.46324 13.9996 6.46324 13.9996 6.46324 13.9996C6.46317 14.1649 6.50916 14.327 6.59606 14.4676C6.68296 14.6083 6.80733 14.7219 6.95522 14.7958C6.95522 14.7958 6.95523 14.7958 6.95524 14.7958L10.014 16.3252ZM8.24265 13.4498V10.485L9.52206 11.0447V14.0895L8.24265 13.4498ZM9.34806 9.02723L12.8099 7.51441L13.8667 7.97551L10.4116 9.48986L9.34806 9.02723ZM15.8897 27.193V13.0521L26.3456 8.47762V21.9389L15.8897 27.193Z" fill="url(#paint0_linear)" stroke="url(#paint1_linear)" stroke-width="0.25"/>
<path d="M16.8945 23.2534L16.8946 23.2534L19.9586 21.7133L16.8945 23.2534ZM16.8945 23.2534C16.6836 23.3596 16.5236 23.5452 16.4496 23.7693M16.8945 23.2534L16.4496 23.7693M16.4496 23.7693C16.3757 23.9935 16.3937 24.2378 16.4999 24.4487M16.4496 23.7693L16.4999 24.4487M16.4999 24.4487C16.6061 24.6595 16.7917 24.8195 17.0158 24.8935M16.4999 24.4487L17.0158 24.8935M17.0158 24.8935C17.24 24.9675 17.4843 24.9494 17.6952 24.8432L17.0158 24.8935Z" fill="url(#paint2_linear)" stroke="url(#paint3_linear)" stroke-width="0.25"/>
<path d="M17.6927 21.784L17.6926 21.784C17.5689 21.846 17.4325 21.8783 17.2941 21.8783C17.2941 21.8783 17.294 21.8783 17.294 21.8783L17.6927 21.784ZM17.6927 21.784L20.7133 20.266L20.7134 20.266M17.6927 21.784L20.7134 20.266M20.7134 20.266C20.9242 20.1598 21.0842 19.9742 21.1582 19.7501M20.7134 20.266L21.1582 19.7501M21.1582 19.7501C21.2322 19.5259 21.2141 19.2816 21.108 19.0707M21.1582 19.7501L21.108 19.0707M21.108 19.0707C21.0018 18.8599 20.8162 18.6999 20.592 18.6259M21.108 19.0707L20.592 18.6259M20.592 18.6259C20.3679 18.5519 20.1236 18.57 19.9128 18.6761L20.592 18.6259Z" fill="url(#paint4_linear)" stroke="url(#paint5_linear)" stroke-width="0.25"/>
<defs>
<linearGradient id="paint0_linear" x1="2" y1="15.2004" x2="28" y2="15.2004" gradientUnits="userSpaceOnUse">
<stop stop-color="#61A8FA"/>
<stop offset="1" stop-color="#5E77FF"/>
</linearGradient>
<linearGradient id="paint1_linear" x1="2" y1="15.2004" x2="28" y2="15.2004" gradientUnits="userSpaceOnUse">
<stop stop-color="#61A8FA"/>
<stop offset="1" stop-color="#5E77FF"/>
</linearGradient>
<linearGradient id="paint2_linear" x1="16.5298" y1="23.2783" x2="21.124" y2="23.2783" gradientUnits="userSpaceOnUse">
<stop stop-color="#61A8FA"/>
<stop offset="1" stop-color="#5E77FF"/>
</linearGradient>
<linearGradient id="paint3_linear" x1="16.5298" y1="23.2783" x2="21.124" y2="23.2783" gradientUnits="userSpaceOnUse">
<stop stop-color="#61A8FA"/>
<stop offset="1" stop-color="#5E77FF"/>
</linearGradient>
<linearGradient id="paint4_linear" x1="16.5286" y1="20.2297" x2="21.0781" y2="20.2297" gradientUnits="userSpaceOnUse">
<stop stop-color="#61A8FA"/>
<stop offset="1" stop-color="#5E77FF"/>
</linearGradient>
<linearGradient id="paint5_linear" x1="16.5286" y1="20.2297" x2="21.0781" y2="20.2297" gradientUnits="userSpaceOnUse">
<stop stop-color="#61A8FA"/>
<stop offset="1" stop-color="#5E77FF"/>
</linearGradient>
</defs>
</svg>
