<svg width="32" height="32" viewBox="0 0 32 32" fill="none" xmlns="http://www.w3.org/2000/svg">
<path d="M16.2423 2.2857H15.5383C15.1621 2.2857 14.8572 1.98071 14.8572 1.6046V1.5817C14.8572 0.708131 14.149 0 13.2754 0H13.2389C12.3653 0 11.6572 0.708131 11.6572 1.5817V1.6046C11.6572 1.98076 11.3522 2.28575 10.9761 2.28575H10.2721C9.52222 2.28575 8.91438 2.89359 8.91438 3.64345V3.6709C8.91438 4.42076 9.52222 5.0286 10.2721 5.0286H16.2424C16.9922 5.0286 17.6001 4.42071 17.6001 3.6709V3.6434C17.6 2.89359 16.9922 2.2857 16.2423 2.2857ZM13.2571 2.2857C12.8784 2.2857 12.5714 1.97867 12.5714 1.6C12.5714 1.22128 12.8785 0.914248 13.2571 0.914248C13.6358 0.914248 13.9428 1.22128 13.9428 1.6C13.9428 1.97872 13.6358 2.2857 13.2571 2.2857ZM16.31 28.8H4.79998C3.7901 28.8 2.97144 27.9813 2.97144 26.9715V5.02855C2.97144 4.01867 3.7901 3.2 4.34283 3.2H8.04761C8.01671 3.35184 8.00003 3.50923 8.00003 3.67101C8.00003 4.92371 9.01922 5.9429 10.2721 5.9429H16.2422C17.4952 5.9429 18.5143 4.92371 18.5143 3.64335C18.5143 3.49156 18.498 3.34358 18.4696 3.2H21.2571C22.7242 3.2 23.5429 4.01867 23.5429 5.02855V18.766C23.3909 18.7565 23.2401 18.7428 23.0858 18.7428C22.4534 18.7428 21.8428 18.8319 21.2571 18.9836V8.22855H5.25713V26.5143H15.7945C15.8446 27.3178 16.0202 28.0869 16.31 28.8ZM23.0857 20.1143C19.8036 20.1143 17.1429 22.7751 17.1429 26.0571C17.1429 29.3392 19.8035 32 23.0857 32C26.3679 32 29.0285 29.3392 29.0285 26.0571C29.0285 22.7751 26.3678 20.1143 23.0857 20.1143ZM26.9689 24.8361L23.3118 28.9504C23.1317 29.1532 22.8807 29.2571 22.6281 29.2571C22.4274 29.2571 22.2256 29.1915 22.0573 29.0567L19.7716 27.2281C19.3774 26.9129 19.3133 26.3375 19.629 25.9433C19.9441 25.5487 20.5198 25.4848 20.914 25.8005L22.5217 27.0866L25.6023 23.621C25.9374 23.2438 26.5155 23.2094 26.893 23.5452C27.2705 23.8808 27.3044 24.4585 26.9689 24.8361ZM18.9714 16H11.6572C11.4047 16 11.2 15.7953 11.2 15.5428V15.0857C11.2 14.8332 11.4047 14.6285 11.6572 14.6285H18.9714C19.2239 14.6285 19.4286 14.8333 19.4286 15.0857V15.5428C19.4285 15.7953 19.2239 16 18.9714 16ZM18.9714 11.8857H11.6572C11.4047 11.8857 11.2 11.681 11.2 11.4285V10.9714C11.2 10.7189 11.4047 10.5142 11.6572 10.5142H18.9714C19.2239 10.5142 19.4286 10.719 19.4286 10.9714V11.4285C19.4285 11.681 19.2239 11.8857 18.9714 11.8857ZM16.6857 19.6572H11.6572C11.4047 19.6572 11.2 19.4524 11.2 19.2V18.7428C11.2 18.4904 11.4047 18.2857 11.6572 18.2857H16.6857C16.9382 18.2857 17.1429 18.4904 17.1429 18.7428V19.2C17.1428 19.4524 16.9382 19.6572 16.6857 19.6572ZM15.7714 23.7715H11.6571C11.4046 23.7715 11.2 23.5667 11.2 23.3143V22.8572C11.2 22.6047 11.4046 22.4 11.6571 22.4H15.7714C16.0239 22.4 16.2286 22.6047 16.2286 22.8572V23.3143C16.2286 23.5667 16.0239 23.7715 15.7714 23.7715ZM10.3247 10.1951L8.64113 12.0892C8.5582 12.1825 8.4427 12.2304 8.32636 12.2304C8.23396 12.2304 8.1411 12.2002 8.06361 12.1381L7.01132 11.2963C6.82983 11.1512 6.8004 10.8863 6.94565 10.7048C7.0907 10.5231 7.35579 10.4938 7.53723 10.6391L8.27736 11.2311L9.69556 9.63566C9.8498 9.46201 10.1159 9.44617 10.2897 9.60073C10.4636 9.75529 10.4792 10.0212 10.3247 10.1951ZM10.3247 14.2623L8.64113 16.1563C8.5582 16.2497 8.4427 16.2975 8.32636 16.2975C8.23396 16.2975 8.1411 16.2673 8.06361 16.2052L7.01132 15.3635C6.82983 15.2184 6.8004 14.9535 6.94565 14.772C7.0907 14.5903 7.35579 14.5609 7.53723 14.7062L8.27736 15.2983L9.69556 13.7028C9.8498 13.5292 10.1159 13.5134 10.2897 13.668C10.4636 13.8225 10.4792 14.0885 10.3247 14.2623ZM10.3247 18.1519L8.64113 20.046C8.5582 20.1393 8.4427 20.1872 8.32636 20.1872C8.23396 20.1872 8.1411 20.157 8.06361 20.0949L7.01132 19.2531C6.82983 19.108 6.8004 18.8431 6.94565 18.6616C7.0907 18.4799 7.35579 18.4505 7.53723 18.5958L8.27736 19.1879L9.69556 17.5924C9.8498 17.4188 10.1159 17.4029 10.2897 17.5575C10.4636 17.7122 10.4792 17.9781 10.3247 18.1519ZM10.3247 22.069L8.64113 23.9631C8.5582 24.0564 8.4427 24.1043 8.32636 24.1043C8.23396 24.1043 8.1411 24.0741 8.06361 24.012L7.01132 23.1701C6.82983 23.0251 6.8004 22.7602 6.94565 22.5787C7.0907 22.397 7.35579 22.3676 7.53723 22.5129L8.27736 23.1049L9.69556 21.5095C9.8498 21.3358 10.1159 21.32 10.2897 21.4746C10.4636 21.6292 10.4792 21.8952 10.3247 22.069Z" fill="url(#paint0_linear)"/>
<defs>
<linearGradient id="paint0_linear" x1="2.97144" y1="16" x2="29.0285" y2="16" gradientUnits="userSpaceOnUse">
<stop stop-color="#61A8FA"/>
<stop offset="1" stop-color="#5E77FF"/>
</linearGradient>
</defs>
</svg>
