<svg width="33" height="28" viewBox="0 0 33 28" fill="none" xmlns="http://www.w3.org/2000/svg">
<path d="M2 26H0.5V27.5H2V26ZM22.9912 26V27.5H24.4912V26H22.9912ZM12.4956 14.9783C16.3339 14.9783 19.2434 11.5949 19.2434 7.73914H16.2434C16.2434 10.1964 14.4299 11.9783 12.4956 11.9783V14.9783ZM19.2434 7.73914C19.2434 3.88337 16.3339 0.5 12.4956 0.5V3.5C14.4299 3.5 16.2434 5.28185 16.2434 7.73914H19.2434ZM12.4956 0.5C8.65734 0.5 5.7478 3.88337 5.7478 7.73914H8.7478C8.7478 5.28185 10.5613 3.5 12.4956 3.5V0.5ZM5.7478 7.73914C5.7478 11.5949 8.65734 14.9783 12.4956 14.9783V11.9783C10.5613 11.9783 8.7478 10.1964 8.7478 7.73914H5.7478ZM12.4956 15.1087C10.5062 15.1087 7.6618 15.6651 5.27539 16.7997C2.98111 17.8904 0.5 19.8317 0.5 22.8696H3.5C3.5 21.6814 4.49556 20.4922 6.5635 19.5091C8.53933 18.5697 10.9427 18.1087 12.4956 18.1087V15.1087ZM0.5 22.8696V26H3.5V22.8696H0.5ZM2 27.5H22.9912V24.5H2V27.5ZM24.4912 26V22.8696H21.4912V26H24.4912ZM24.4912 22.8696C24.4912 19.8317 22.0101 17.8904 19.7158 16.7997C17.3294 15.6651 14.485 15.1087 12.4956 15.1087V18.1087C14.0485 18.1087 16.4519 18.5697 18.4277 19.5091C20.4956 20.4922 21.4912 21.6814 21.4912 22.8696H24.4912ZM23 11.7941H28V8.79412H23V11.7941ZM28 11.7941H33V8.79412H28V11.7941ZM29.5 10.2941V5H26.5V10.2941H29.5ZM26.5 10.2941V15H29.5V10.2941H26.5Z" fill="url(#paint0_linear)"/>
<defs>
<linearGradient id="paint0_linear" x1="2" y1="14" x2="33" y2="14" gradientUnits="userSpaceOnUse">
<stop stop-color="#61A8FA"/>
<stop offset="1" stop-color="#5E77FF"/>
</linearGradient>
</defs>
</svg>
