<svg width="32" height="32" viewBox="0 0 32 32" fill="none" xmlns="http://www.w3.org/2000/svg">
<g clip-path="url(#clip0)">
<path d="M29.8635 15.5151C29.6938 15.2341 29.3894 15.0625 29.0613 15.0625C26.2927 15.0625 23.7581 16.4856 22.3147 18.8125H11.196C9.94407 18.8125 8.76682 19.3 7.88157 20.1855L2.33688 25.73C1.97116 26.0959 1.97092 26.6897 2.33688 27.0559C4.61374 29.3325 7.00315 31.7043 7.02707 31.7278C7.39304 32.0913 7.98362 32.0903 8.34885 31.727L11.9048 28.1875H19.7585C22.208 28.1875 24.4355 26.8401 25.571 24.6711C25.5996 24.6167 28.4392 19.1978 29.8909 16.4363C30.0437 16.1455 30.0334 15.7964 29.8635 15.5151ZM23.9102 23.8013C23.0991 25.3503 21.5083 26.3125 19.7585 26.3125H11.5178C11.2698 26.3125 11.032 26.4106 10.8564 26.5854L7.68674 29.7405C6.93992 28.9983 5.65476 27.7197 4.3259 26.3926L9.20725 21.5112C9.7385 20.98 10.4448 20.6875 11.196 20.6875H21.3083L20.5889 22.0603C20.4265 22.3701 20.1084 22.5625 19.7585 22.5625H13.3928C12.875 22.5625 12.4553 22.9822 12.4553 23.5C12.4553 24.0178 12.875 24.4375 13.3928 24.4375H19.7585C20.8079 24.4375 21.7624 23.8601 22.2498 22.9307C22.2505 22.929 23.6968 20.1694 23.6968 20.1694C24.4819 18.6841 25.8218 17.6182 27.387 17.1711C25.8911 20.0207 23.9341 23.7559 23.9102 23.8013Z" fill="url(#paint0_linear)"/>
<path d="M10.5803 16.9375H21.8303C22.3479 16.9375 22.7678 16.5178 22.7678 16V4.68751C22.7678 4.16968 22.3479 3.75 21.8303 3.75H19.0178V2.8125C19.0178 1.26172 17.7561 0 16.2053 0C14.6545 0 13.3928 1.26172 13.3928 2.8125V3.75H10.5803C10.0625 3.75 9.64282 4.16968 9.64282 4.68751V16C9.64282 16.5178 10.0625 16.9375 10.5803 16.9375ZM15.2678 2.8125C15.2678 2.29566 15.6882 1.875 16.2053 1.875C16.7222 1.875 17.1428 2.29566 17.1428 2.8125V3.75H15.2678V2.8125ZM11.5178 5.62501H13.3928V6.56251C13.3928 7.08033 13.8125 7.50001 14.3303 7.50001C14.8479 7.50001 15.2678 7.08033 15.2678 6.56251V5.62501H17.1428V6.56251C17.1428 7.08033 17.5625 7.50001 18.0803 7.50001C18.5979 7.50001 19.0178 7.08033 19.0178 6.56251V5.62501H20.8928V15.0625H11.5178V5.62501Z" fill="url(#paint1_linear)"/>
</g>
<defs>
<linearGradient id="paint0_linear" x1="2.0625" y1="23.5312" x2="29.9986" y2="23.5312" gradientUnits="userSpaceOnUse">
<stop stop-color="#61A8FA"/>
<stop offset="1" stop-color="#5E77FF"/>
</linearGradient>
<linearGradient id="paint1_linear" x1="9.64282" y1="8.46876" x2="22.7678" y2="8.46876" gradientUnits="userSpaceOnUse">
<stop stop-color="#61A8FA"/>
<stop offset="1" stop-color="#5E77FF"/>
</linearGradient>
<clipPath id="clip0">
<rect width="32" height="32" fill="white"/>
</clipPath>
</defs>
</svg>
