<svg width="34" height="32" viewBox="0 0 34 32" fill="none" xmlns="http://www.w3.org/2000/svg">
<path d="M9.68477 5.75714C9.68477 3.77494 11.2917 2.16797 13.2742 2.16797C15.2564 2.16797 16.8635 3.77494 16.8635 5.75714C16.8635 7.73935 15.2564 9.34626 13.2742 9.34626C11.2917 9.34631 9.68477 7.73935 9.68477 5.75714ZM14.9991 11.7916C15.0351 11.01 15.3041 10.2866 15.737 9.68864C15.4332 9.62502 15.1192 9.59123 14.7971 9.59123H11.7517C11.4305 9.59123 11.117 9.62476 10.8148 9.6876C11.2754 10.3265 11.5509 11.1068 11.5554 11.9515C12.1153 11.6435 12.7578 11.4682 13.4402 11.4682C13.9937 11.4682 14.5207 11.5835 14.9991 11.7916ZM15.6067 12.1137C16.6492 12.7675 17.3803 13.8733 17.514 15.1575C17.9388 15.356 18.4109 15.4706 18.911 15.4706C20.7375 15.4706 22.2179 13.99 22.2179 12.1636C22.2179 10.337 20.7375 8.85674 18.911 8.85674C17.1013 8.8568 15.6341 10.3108 15.6067 12.1137ZM13.4401 18.8849C15.2663 18.8849 16.7468 17.4039 16.7468 15.578C16.7468 13.7519 15.2663 12.2711 13.4401 12.2711C11.6139 12.2711 10.1327 13.7518 10.1327 15.578C10.1328 17.4039 11.6139 18.8849 13.4401 18.8849ZM14.8429 19.1099H12.0371C9.70253 19.1099 7.80275 21.0096 7.80275 23.3445V26.7763L7.81169 26.83L8.04788 26.9035C10.276 27.5994 12.2117 27.8321 13.8051 27.8321C16.9166 27.8321 18.7208 26.9448 18.832 26.8881L19.053 26.7762H19.0764V23.3444C19.0765 21.0096 17.1778 19.1099 14.8429 19.1099ZM20.3145 15.6963H17.5298C17.4996 16.8105 17.024 17.8139 16.272 18.5351C18.3473 19.1522 19.8657 21.0765 19.8657 23.3497V24.4071C22.6146 24.3059 24.199 23.5272 24.3033 23.4748L24.5244 23.3623H24.5478V19.9299C24.5481 17.5956 22.6485 15.6963 20.3145 15.6963ZM21.0588 8.78623C22.1014 9.44012 22.8325 10.546 22.9659 11.8302C23.3907 12.0287 23.8628 12.143 24.3629 12.143C26.1897 12.143 27.67 10.6627 27.67 8.83653C27.67 7.00987 26.1896 5.52967 24.3629 5.52967C22.5534 5.52946 21.0864 6.98376 21.0588 8.78623ZM25.766 12.3688H22.9819C22.9517 13.483 22.4762 14.4864 21.7242 15.2075C23.7994 15.8244 25.3178 17.749 25.3178 20.0222V21.0797C28.0664 20.9786 29.6511 20.2001 29.7555 20.1472L29.9762 20.0352H30V16.6023C30.0003 14.2682 28.1007 12.3688 25.766 12.3688ZM7.63775 15.4706C8.2847 15.4706 8.88625 15.2816 9.3964 14.9599C9.55863 13.9027 10.1255 12.9787 10.9348 12.3497C10.9382 12.2876 10.9439 12.2263 10.9439 12.1637C10.9439 10.3371 9.4631 8.8568 7.63775 8.8568C5.81084 8.8568 4.33064 10.337 4.33064 12.1637C4.33064 13.9904 5.81079 15.4706 7.63775 15.4706ZM10.6076 18.5351C9.85902 17.8173 9.38512 16.8194 9.35023 15.7117C9.24728 15.704 9.14506 15.6963 9.03981 15.6963H6.23439C3.89946 15.6963 2 17.5956 2 19.9302V23.3623L2.00867 23.4158L2.24518 23.4895C4.03224 24.0484 5.62777 24.3052 7.01353 24.3855V23.3493C7.01379 21.0765 8.53181 19.1519 10.6076 18.5351Z" stroke="url(#paint0_linear)" stroke-width="2"/>
<defs>
<linearGradient id="paint0_linear" x1="2" y1="15" x2="30" y2="15" gradientUnits="userSpaceOnUse">
<stop stop-color="#61A8FA"/>
<stop offset="1" stop-color="#5E77FF"/>
</linearGradient>
</defs>
</svg>
