<svg width="32" height="32" viewBox="0 0 32 32" fill="none" xmlns="http://www.w3.org/2000/svg">
<g clip-path="url(#clip0)">
<path d="M31.6655 11.7632L23.6653 3.76308C23.2189 3.31682 22.4953 3.31695 22.049 3.76334C21.8348 3.97763 21.7145 4.26813 21.7144 4.57115V7.99977H13.7143C13.083 7.99977 12.5714 8.51146 12.5714 9.14267C12.5714 9.77389 13.083 10.2856 13.7143 10.2856H22.8573C23.4885 10.2856 24.0002 9.77389 24.0002 9.14267V7.32999L29.2414 12.5712L24.0002 17.8125V15.9999C24.0002 15.3686 23.4885 14.857 22.8573 14.857H10.2856V11.4283C10.2855 10.7971 9.77368 10.2856 9.14253 10.2857C8.83958 10.2858 8.54902 10.4061 8.33473 10.6203L0.334643 18.6205C-0.111548 19.0668 -0.111548 19.7902 0.334643 20.2365L8.33479 28.2366C8.54908 28.451 8.83971 28.5715 9.1428 28.5715C9.293 28.572 9.44186 28.5425 9.58048 28.4847C10.0075 28.3076 10.2858 27.8909 10.2856 27.4286V24H18.2858C18.917 24 19.4287 23.4883 19.4287 22.8571C19.4287 22.2259 18.917 21.7142 18.2858 21.7142H9.1428C8.51158 21.7142 7.9999 22.2259 7.9999 22.8571V24.6697L2.75866 19.4285L7.9999 14.1872V15.9999C7.9999 16.6311 8.51158 17.1428 9.1428 17.1428H21.7144V20.5714C21.7145 21.2026 22.2264 21.7141 22.8575 21.714C23.1605 21.7139 23.451 21.5936 23.6653 21.3794L31.6655 13.3792C32.1116 12.9329 32.1116 12.2095 31.6655 11.7632Z" fill="url(#paint0_linear)"/>
</g>
<defs>
<linearGradient id="paint0_linear" x1="0" y1="16" x2="32.0001" y2="16" gradientUnits="userSpaceOnUse">
<stop stop-color="#61A8FA"/>
<stop offset="1" stop-color="#5E77FF"/>
</linearGradient>
<clipPath id="clip0">
<rect width="32" height="32" fill="white"/>
</clipPath>
</defs>
</svg>
